<svg xmlns="http://www.w3.org/2000/svg" xmlns:xlink="http://www.w3.org/1999/xlink" viewBox="0 0 680.63 410.45"><defs><style>.cls-1{isolation:isolate;}.cls-11,.cls-15,.cls-2,.cls-20,.cls-23,.cls-25,.cls-27,.cls-28,.cls-31,.cls-32,.cls-33,.cls-36,.cls-44,.cls-47,.cls-49,.cls-51,.cls-56,.cls-59,.cls-61,.cls-64,.cls-65,.cls-68{fill:none;}.cls-11,.cls-2,.cls-3,.cls-4{stroke:#b6c8ef;}.cls-11,.cls-2,.cls-31,.cls-4,.cls-59,.cls-64{stroke-linecap:round;}.cls-11,.cls-2,.cls-31,.cls-33,.cls-4,.cls-59{stroke-linejoin:round;}.cls-2{stroke-dasharray:3 3;}.cls-3,.cls-4,.cls-6{fill:#fff;}.cls-15,.cls-20,.cls-23,.cls-25,.cls-27,.cls-28,.cls-3,.cls-32,.cls-36,.cls-44,.cls-47,.cls-49,.cls-51,.cls-56,.cls-61,.cls-64,.cls-65,.cls-68{stroke-miterlimit:10;}.cls-5{fill:#ffcd5c;}.cls-7{fill:#fe9;}.cls-8{mix-blend-mode:multiply;}.cls-37,.cls-8{opacity:0.55;}.cls-9{fill:#28364c;}.cls-10{fill:#475577;}.cls-12{fill:#e3f1fc;}.cls-13{fill:#c7d2ef;}.cls-14{fill:#e3edff;}.cls-15{stroke:#114093;}.cls-16{opacity:0.45;}.cls-17{fill:#b7c2ce;}.cls-18{fill:#f9a895;}.cls-19{fill:#ff8d27;}.cls-20{stroke:#dd5e17;}.cls-20,.cls-23,.cls-25,.cls-27,.cls-44,.cls-47,.cls-49,.cls-51,.cls-56,.cls-61,.cls-65,.cls-68{stroke-width:0.75px;}.cls-21{fill:#ffcbbb;}.cls-22{fill:#ffb548;}.cls-23{stroke:#ed841b;}.cls-24{fill:#1a53e2;}.cls-25{stroke:#2a36c6;}.cls-26{fill:#4868ef;}.cls-27{stroke:#1d2ea8;}.cls-28{stroke:#ffcbbb;}.cls-29{fill:#f9bbaf;}.cls-30{fill:#00276f;}.cls-31{stroke:#00276f;}.cls-31,.cls-33,.cls-64{stroke-width:0.5px;}.cls-32,.cls-33{stroke:#f7a794;}.cls-34{fill:#011e3b;}.cls-35{fill:#91a9d8;}.cls-36{stroke:#e2690e;}.cls-38{fill:url(#linear-gradient);}.cls-39{fill:#e8eaef;}.cls-40{fill:#cfdae5;}.cls-41{fill:#f0f6ff;}.cls-42{fill:#7d97d3;}.cls-43{fill:#f49c84;}.cls-44{stroke:#c45f47;}.cls-45{fill:#173789;}.cls-46{fill:#2b88f7;}.cls-47{stroke:#1340bf;}.cls-48{fill:#223082;}.cls-49{stroke:#0d1735;}.cls-50{fill:#ffefab;}.cls-51{stroke:#273b7a;}.cls-52{fill:#86ada8;}.cls-53{fill:#bcddcb;}.cls-54{fill:#8ebca1;}.cls-55{fill:#d6e8dd;}.cls-56{stroke:#8ebca1;}.cls-57{fill:#f2f5f9;}.cls-58{fill:#3f6d54;}.cls-59{stroke:#91afe5;}.cls-60{fill:#af5743;}.cls-61{stroke:#752d21;}.cls-62{fill:#ff855a;}.cls-63{fill:#4a1a1a;}.cls-64{stroke:#4a1a1a;}.cls-65{stroke:#121e3a;}.cls-66{fill:#752d21;}.cls-67{fill:#b9b5b2;}.cls-68{stroke:#846a6a;}</style><linearGradient id="linear-gradient" x1="448.06" y1="281.17" x2="448.06" y2="262.45" gradientUnits="userSpaceOnUse"><stop offset="0" stop-color="#fff" stop-opacity="0.1"/><stop offset="1" stop-color="#fff" stop-opacity="0.4"/></linearGradient></defs><g class="cls-1"><g id="OBJECTS"><path class="cls-2" d="M487.7,191.27c-30.56-1.23-30.46-44.81,0-46h50.94c31.55-1.14,32.12-45.48.56-47H238.31a24.17,24.17,0,1,0,0,48.34h44.13c12.49,0,23.12,9.71,23.56,22.19a23,23,0,0,1-23,23.86H108.36a37.59,37.59,0,1,0,0,75.17c152.61.06,397.36-.26,548-.42a38.07,38.07,0,0,0,0-76.14Z" transform="translate(-34.63 -49.2)"/><path class="cls-3" d="M465.21,131a34.7,34.7,0,1,0-6.87,5.1l0,0,10.38,5.78L465.24,131Z" transform="translate(-34.63 -49.2)"/><line class="cls-4" x1="406.65" y1="0.5" x2="406.65" y2="12.68"/><line class="cls-4" x1="462.53" y1="56.38" x2="450.35" y2="56.38"/><line class="cls-4" x1="362.95" y1="56.38" x2="350.77" y2="56.38"/><line class="cls-4" x1="437.55" y1="25.48" x2="446.17" y2="16.87"/><line class="cls-4" x1="375.75" y1="25.48" x2="367.14" y2="16.87"/><path class="cls-5" d="M424.18,99.46a17.1,17.1,0,1,1,30.92,10.07h0c-2.44,3.68-8.79,7.83-8.79,10.32v2.84a1,1,0,0,1-1,1h-8a1,1,0,0,1-1-1v-2.84c0-2.49-6.34-6.64-8.78-10.32h0A17,17,0,0,1,424.18,99.46Z" transform="translate(-34.63 -49.2)"/><path class="cls-6" d="M443.22,123.43a111.33,111.33,0,0,1,.22-13.3,18.26,18.26,0,0,1-2.16.12,18.56,18.56,0,0,1-2.17-.12,112.32,112.32,0,0,1,.23,13.3H439a111.31,111.31,0,0,0-.24-13.33c-5.07-.71-7.34-3.58-7.74-6.29a3.79,3.79,0,0,1,1.28-3.75,2.58,2.58,0,0,1,2.09-.21,5.35,5.35,0,0,1,3.07,2.78,22.29,22.29,0,0,1,1.59,7.2,18.6,18.6,0,0,0,4.39,0,22,22,0,0,1,1.6-7.2,5.32,5.32,0,0,1,3.07-2.78,2.56,2.56,0,0,1,2.08.21,3.77,3.77,0,0,1,1.29,3.75c-.41,2.71-2.68,5.58-7.75,6.29a116.23,116.23,0,0,0-.24,13.33ZM449,100a2.59,2.59,0,0,0-.76.11,5.06,5.06,0,0,0-2.89,2.63,21.93,21.93,0,0,0-1.54,7c4.86-.7,7-3.44,7.42-6a3.52,3.52,0,0,0-1.14-3.44A2,2,0,0,0,449,100Zm-15.41,0a2,2,0,0,0-1.08.29,3.52,3.52,0,0,0-1.14,3.44c.38,2.59,2.56,5.33,7.42,6a21.9,21.9,0,0,0-1.55-7,5.07,5.07,0,0,0-2.88-2.63A2.65,2.65,0,0,0,433.57,100Z" transform="translate(-34.63 -49.2)"/><path class="cls-7" d="M455.53,100.44a1,1,0,0,1-1-1,13.26,13.26,0,0,0-10-12.86,1,1,0,1,1,.48-1.9,15.2,15.2,0,0,1,11.48,14.76A1,1,0,0,1,455.53,100.44Z" transform="translate(-34.63 -49.2)"/><path class="cls-7" d="M441,85.19a1,1,0,1,0,1-1A1,1,0,0,0,441,85.19Z" transform="translate(-34.63 -49.2)"/><g class="cls-8"><path class="cls-5" d="M458.34,100.47c-.94,7-6.6,14.27-17.06,14.27s-15.91-7.59-17.07-14.27a17,17,0,0,0,3.25,9.06h0c2.44,3.68,8.78,7.83,8.78,10.32v2.84a1,1,0,0,0,1,1h8a1,1,0,0,0,1-1v-2.84c0-2.49,6.35-6.64,8.79-10.32h0A17.07,17.07,0,0,0,458.34,100.47Z" transform="translate(-34.63 -49.2)"/></g><path class="cls-9" d="M446.72,121.06H435.84v5.19a4.52,4.52,0,0,0,.69,2.39h0a4.69,4.69,0,0,0,4,2.17h1.6a4.66,4.66,0,0,0,3.94-2.17h0a4.44,4.44,0,0,0,.7-2.39Z" transform="translate(-34.63 -49.2)"/><path class="cls-10" d="M446.72,124.55h-.09L435.74,123a.68.68,0,1,1,.19-1.35l10.88,1.51a.69.69,0,0,1,.58.77A.68.68,0,0,1,446.72,124.55Z" transform="translate(-34.63 -49.2)"/><path class="cls-10" d="M446.72,126.93h-.09l-10.89-1.51a.68.68,0,0,1-.58-.76.68.68,0,0,1,.77-.58l10.88,1.51a.68.68,0,0,1,.58.76A.69.69,0,0,1,446.72,126.93Z" transform="translate(-34.63 -49.2)"/><path class="cls-10" d="M446.29,129.26h-.1l-10.31-1.42a.68.68,0,0,1-.58-.77.68.68,0,0,1,.76-.58l10.32,1.43a.68.68,0,0,1-.09,1.35Z" transform="translate(-34.63 -49.2)"/><path class="cls-11" d="M573.94,168.25a3.28,3.28,0,1,1-3.27-3.28A3.27,3.27,0,0,1,573.94,168.25Z" transform="translate(-34.63 -49.2)"/><path class="cls-11" d="M349.74,61.71a3.28,3.28,0,1,1-3.28-3.27A3.28,3.28,0,0,1,349.74,61.71Z" transform="translate(-34.63 -49.2)"/><path class="cls-11" d="M385.86,135.15a3.28,3.28,0,1,1-3.28-3.28A3.28,3.28,0,0,1,385.86,135.15Z" transform="translate(-34.63 -49.2)"/><path class="cls-11" d="M671,113.44a3.28,3.28,0,1,1-3.28-3.27A3.28,3.28,0,0,1,671,113.44Z" transform="translate(-34.63 -49.2)"/><path class="cls-11" d="M119.55,169.6a3.28,3.28,0,1,1-3.27-3.28A3.27,3.27,0,0,1,119.55,169.6Z" transform="translate(-34.63 -49.2)"/><path class="cls-11" d="M66,184.64l-8.15,2.18c-.68.18-.83,1.24-.24,1.8l5.87,5.66a.79.79,0,0,0,1.36-.37l2.27-7.83C67.38,185.3,66.73,184.46,66,184.64Z" transform="translate(-34.63 -49.2)"/><path class="cls-11" d="M676.78,218.77l-6.84-4.94c-.57-.42-1.48.14-1.55.95l-.66,8.12a.79.79,0,0,0,1.14.83l7.5-3.2C677.12,220.22,677.36,219.18,676.78,218.77Z" transform="translate(-34.63 -49.2)"/><line class="cls-11" x1="55.54" y1="187.7" x2="84.52" y2="187.7"/><line class="cls-11" x1="385.53" y1="115" x2="410.99" y2="115"/><line class="cls-11" x1="569.47" y1="155.14" x2="587.43" y2="155.14"/><line class="cls-11" x1="591.74" y1="155.14" x2="600.73" y2="155.14"/><line class="cls-11" x1="267.03" y1="85.94" x2="284.32" y2="85.94"/><line class="cls-11" x1="280.84" y1="93.99" x2="294.4" y2="93.99"/><line class="cls-11" x1="136.14" y1="61.02" x2="150.14" y2="61.02"/><line class="cls-11" x1="147.22" y1="55.98" x2="156.17" y2="55.98"/><line class="cls-11" x1="74.65" y1="194.53" x2="88.65" y2="194.53"/><line class="cls-11" x1="16.8" y1="190.63" x2="16.8" y2="196.35"/><line class="cls-11" x1="19.66" y1="193.49" x2="13.93" y2="193.49"/><line class="cls-11" x1="19.66" y1="193.49" x2="13.93" y2="193.49"/><line class="cls-11" x1="112.9" y1="71.65" x2="112.9" y2="77.38"/><line class="cls-11" x1="115.77" y1="74.51" x2="110.04" y2="74.51"/><line class="cls-11" x1="115.77" y1="74.51" x2="110.04" y2="74.51"/><line class="cls-11" x1="373.39" y1="137.51" x2="373.39" y2="143.24"/><line class="cls-11" x1="376.26" y1="140.37" x2="370.53" y2="140.37"/><line class="cls-11" x1="376.26" y1="140.37" x2="370.53" y2="140.37"/><line class="cls-11" x1="504.31" y1="10.26" x2="504.31" y2="15.99"/><line class="cls-11" x1="507.17" y1="13.13" x2="501.45" y2="13.13"/><line class="cls-11" x1="507.17" y1="13.13" x2="501.45" y2="13.13"/><line class="cls-11" x1="614.18" y1="127.62" x2="614.18" y2="133.35"/><line class="cls-11" x1="617.04" y1="130.48" x2="611.32" y2="130.48"/><line class="cls-11" x1="617.04" y1="130.48" x2="611.32" y2="130.48"/><line class="cls-11" x1="677.27" y1="230.94" x2="677.27" y2="236.67"/><line class="cls-11" x1="680.13" y1="233.8" x2="674.41" y2="233.8"/><line class="cls-11" x1="680.13" y1="233.8" x2="674.41" y2="233.8"/><path class="cls-12" d="M211.19,82.92s-.11,0-.13,0H148.74c-9.8,0-12.83-.32-22.61,0-.11-6,1.57-11.73,4.46-14.78a10.58,10.58,0,0,1,9.78-3c4.22,1.12,7.09,3.94,9.82,6,1-8.32,4.41-15.89,8.1-17.55,6.36-2.85,13,1.67,16,6a27.32,27.32,0,0,1,4.31,12.25c4-4.41,12.91-7.78,16.13-.78,1.26,2.75,1.16,5.9,1,8.92A18.51,18.51,0,0,1,211.19,82.92Z" transform="translate(-34.63 -49.2)"/><path class="cls-12" d="M564.7,154.11c1.4-5.69,14.63-14,21.7-9a21.4,21.4,0,0,1,11.29-18.32c9.57-5.19,18.77,5.13,20.81,11.64,1.9-6,11.56-14.1,19.33-7.27,7.18,6.32,7.9,16.91,7.15,22.94Z" transform="translate(-34.63 -49.2)"/><path class="cls-13" d="M531.59,346.43l17.88-117.28a5.85,5.85,0,0,1,5.78-5h78.92L614.05,353.72a17.56,17.56,0,0,1-17.72,14.95H477.75a5.93,5.93,0,0,1-5.94-5.93h0a5.94,5.94,0,0,1,5.94-5.94h41.59A12.14,12.14,0,0,0,531.59,346.43Z" transform="translate(-34.63 -49.2)"/><path class="cls-14" d="M611,346.43l18-117.72a5.29,5.29,0,0,1,5.34-4.53h.16a6.52,6.52,0,0,1,6.38,7.3l-19,122.24a17.56,17.56,0,0,1-17.72,14.95h-86a5.93,5.93,0,0,1-5.94-5.93h0a5.94,5.94,0,0,1,5.94-5.94h80.63A12.15,12.15,0,0,0,611,346.43Z" transform="translate(-34.63 -49.2)"/><line class="cls-15" x1="519.59" y1="319.47" x2="519.59" y2="391.19"/><path class="cls-15" d="M591.62,446.29h0a5.9,5.9,0,0,0-5.9-5.89h-63a5.89,5.89,0,0,0-5.89,5.89h0" transform="translate(-34.63 -49.2)"/><path class="cls-15" d="M560.66,446.29h0a5.89,5.89,0,0,0-5.89-5.89" transform="translate(-34.63 -49.2)"/><path class="cls-14" d="M585.67,452.24a6,6,0,1,0,6-5.95A5.95,5.95,0,0,0,585.67,452.24Z" transform="translate(-34.63 -49.2)"/><g class="cls-16"><path class="cls-17" d="M589.43,452.24a2.19,2.19,0,1,0,2.19-2.18A2.19,2.19,0,0,0,589.43,452.24Z" transform="translate(-34.63 -49.2)"/></g><path class="cls-14" d="M554.71,452.24a6,6,0,1,0,5.95-5.95A6,6,0,0,0,554.71,452.24Z" transform="translate(-34.63 -49.2)"/><g class="cls-16"><path class="cls-17" d="M558.48,452.24a2.19,2.19,0,1,0,2.18-2.18A2.19,2.19,0,0,0,558.48,452.24Z" transform="translate(-34.63 -49.2)"/></g><path class="cls-14" d="M510.86,452.24a5.95,5.95,0,1,0,5.95-5.95A5.95,5.95,0,0,0,510.86,452.24Z" transform="translate(-34.63 -49.2)"/><g class="cls-16"><path class="cls-17" d="M514.62,452.24a2.19,2.19,0,1,0,2.19-2.18A2.19,2.19,0,0,0,514.62,452.24Z" transform="translate(-34.63 -49.2)"/></g><path class="cls-13" d="M360.9,346.43,343,229.15a5.85,5.85,0,0,0-5.78-5H258.32l20.12,129.54a17.56,17.56,0,0,0,17.72,14.95H414.74a5.93,5.93,0,0,0,5.94-5.93h0a5.94,5.94,0,0,0-5.94-5.94H373.15A12.14,12.14,0,0,1,360.9,346.43Z" transform="translate(-34.63 -49.2)"/><path class="cls-14" d="M281.45,346.43,263.5,228.71a5.29,5.29,0,0,0-5.34-4.53H258a6.52,6.52,0,0,0-6.38,7.3l19,122.24a17.56,17.56,0,0,0,17.72,14.95h86a5.93,5.93,0,0,0,5.94-5.93h0a5.94,5.94,0,0,0-5.94-5.94H293.71A12.15,12.15,0,0,1,281.45,346.43Z" transform="translate(-34.63 -49.2)"/><line class="cls-15" x1="303.65" y1="319.47" x2="303.65" y2="391.19"/><path class="cls-15" d="M300.87,446.29h0a5.9,5.9,0,0,1,5.9-5.89h63a5.89,5.89,0,0,1,5.89,5.89h0" transform="translate(-34.63 -49.2)"/><path class="cls-15" d="M331.83,446.29h0a5.89,5.89,0,0,1,5.89-5.89" transform="translate(-34.63 -49.2)"/><path class="cls-14" d="M306.82,452.24a5.95,5.95,0,1,1-5.95-5.95A5.95,5.95,0,0,1,306.82,452.24Z" transform="translate(-34.63 -49.2)"/><g class="cls-16"><path class="cls-17" d="M303.06,452.24a2.19,2.19,0,1,1-2.19-2.18A2.19,2.19,0,0,1,303.06,452.24Z" transform="translate(-34.63 -49.2)"/></g><path class="cls-14" d="M337.78,452.24a5.95,5.95,0,1,1-5.95-5.95A6,6,0,0,1,337.78,452.24Z" transform="translate(-34.63 -49.2)"/><g class="cls-16"><path class="cls-17" d="M334,452.24a2.19,2.19,0,1,1-2.18-2.18A2.19,2.19,0,0,1,334,452.24Z" transform="translate(-34.63 -49.2)"/></g><path class="cls-14" d="M381.63,452.24a5.95,5.95,0,1,1-5.95-5.95A5.95,5.95,0,0,1,381.63,452.24Z" transform="translate(-34.63 -49.2)"/><g class="cls-16"><path class="cls-17" d="M377.87,452.24a2.19,2.19,0,1,1-2.19-2.18A2.19,2.19,0,0,1,377.87,452.24Z" transform="translate(-34.63 -49.2)"/></g><path class="cls-18" d="M400.08,410.55l2.73,33.13-.29,10.87,42.61-.22a1.89,1.89,0,0,0,1.87-1.9h0a1.88,1.88,0,0,0-1.21-1.75l-18.38-8.45-1.06-34.53" transform="translate(-34.63 -49.2)"/><path class="cls-19" d="M448.87,453.87c-.44-1.37-1.24-2.9-2-3.25l-19.49-8.39c-10.74,4.36-24.64,1-24.64,1l-2.48,14.67a.88.88,0,0,0,.89.87h47.43C449.5,458.8,448.88,453.91,448.87,453.87Z" transform="translate(-34.63 -49.2)"/><path class="cls-20" d="M431.56,443.07a23.68,23.68,0,0,0-2.75,4.62" transform="translate(-34.63 -49.2)"/><path class="cls-20" d="M434,444.54a20.08,20.08,0,0,0-2.25,3.92" transform="translate(-34.63 -49.2)"/><path class="cls-20" d="M436.09,445.61a28.8,28.8,0,0,0-2.12,3.6" transform="translate(-34.63 -49.2)"/><line class="cls-20" x1="365.85" y1="406.43" x2="414.44" y2="406.18"/><path class="cls-20" d="M401.82,448.46s11.42.23,12.4,7.11" transform="translate(-34.63 -49.2)"/><path class="cls-20" d="M442.83,448.9s-3.14,4.48-3.76,6.54" transform="translate(-34.63 -49.2)"/><path class="cls-21" d="M379.88,410.55l.58,33.13-.29,10.87,42.61-.22a1.89,1.89,0,0,0,1.87-1.9h0a1.91,1.91,0,0,0-1.22-1.75l-18.37-8.45,1.1-34.53" transform="translate(-34.63 -49.2)"/><path class="cls-22" d="M426.51,453.87c-.43-1.37-1.23-2.9-2-3.25L405,442.23c-10.74,4.36-24.64,1-24.64,1l-2.48,14.67a.87.87,0,0,0,.88.87h47.44C427.14,458.8,426.53,453.91,426.51,453.87Z" transform="translate(-34.63 -49.2)"/><path class="cls-23" d="M409.21,443.07a22.73,22.73,0,0,0-2.75,4.62" transform="translate(-34.63 -49.2)"/><path class="cls-23" d="M411.66,444.54a20.69,20.69,0,0,0-2.26,3.92" transform="translate(-34.63 -49.2)"/><path class="cls-23" d="M413.73,445.61a28.8,28.8,0,0,0-2.12,3.6" transform="translate(-34.63 -49.2)"/><line class="cls-23" x1="343.49" y1="406.43" x2="392.09" y2="406.18"/><path class="cls-23" d="M379.47,448.46s11.41.23,12.4,7.11" transform="translate(-34.63 -49.2)"/><path class="cls-23" d="M420.48,448.9s-3.15,4.48-3.77,6.54" transform="translate(-34.63 -49.2)"/><path class="cls-24" d="M313.66,306.45s-7.6,29.31,2.87,43.8c4.61,6.38,12.5,6.55,20.13,6.55h45a7.28,7.28,0,0,1,7.25,6.67l6.08,71h36.5s-3.66-61.15-4.64-73.3c-.79-9.81-2.57-23.1-6.42-31.69C415.25,318,405.6,312.1,395.8,312.1H378.91a1.56,1.56,0,0,1-1.56-1.57v-3.67" transform="translate(-34.63 -49.2)"/><line class="cls-25" x1="360.81" y1="377.74" x2="396.37" y2="377.74"/><path class="cls-26" d="M292.05,306.45s-7.6,29.31,2.87,43.8c4.61,6.38,12.51,6.55,20.13,6.55h45a7.29,7.29,0,0,1,7.26,6.67l6.07,71h36.5s-3.95-61.13-4.63-73.3-1.7-23.55-6.42-31.69c-7.39-12.72-20.33-17.22-34.55-17.22H337.39v-7.1" transform="translate(-34.63 -49.2)"/><path class="cls-27" d="M298.69,308.75s-4.71,26.5,2.66,35.17c4,4.68,11.32,4.91,16.88,4.91h48.84a7,7,0,0,1,6.93,6.4l6.28,79.28" transform="translate(-34.63 -49.2)"/><line class="cls-27" x1="338.09" y1="377.74" x2="374.75" y2="377.74"/><path class="cls-28" d="M401,318" transform="translate(-34.63 -49.2)"/><path class="cls-27" d="M315.91,310.36c-3.6,8.27-18.36,7.63-18.36,7.63" transform="translate(-34.63 -49.2)"/><path class="cls-29" d="M327.17,188.66c0-.48-.61-.74-1.09-.68a2.16,2.16,0,0,0-1.55,1.22,4.69,4.69,0,0,0-.42,2,3.94,3.94,0,0,0,.32,1.86,2.32,2.32,0,0,0,2.91,1" transform="translate(-34.63 -49.2)"/><path class="cls-21" d="M327.94,180.41s-4,15.1-1.79,18.2c3.26,4.64,11,5,14.28,2.86,2.74-1.8,5-11.42,5-13.92C345.42,180.77,331.5,176.85,327.94,180.41Z" transform="translate(-34.63 -49.2)"/><path class="cls-30" d="M327.84,185.9c-.06.15-.12.29-.17.43s-.1.29-.14.44a.45.45,0,0,0,0,.3.4.4,0,0,0,.24.18.39.39,0,0,0,.48-.27c0-.15.08-.3.12-.45l.09-.44a.36.36,0,0,0,0-.27.35.35,0,0,0-.2-.16.36.36,0,0,0-.27,0l-.07.05a.37.37,0,0,0-.08.15Z" transform="translate(-34.63 -49.2)"/><path class="cls-31" d="M329.43,184.36a1.75,1.75,0,0,0-2.53-.33" transform="translate(-34.63 -49.2)"/><path class="cls-30" d="M335.87,187.76c-.05.14-.09.29-.14.43s-.08.29-.11.44a.42.42,0,0,0,0,.31.41.41,0,0,0,.23.18.42.42,0,0,0,.31,0,.48.48,0,0,0,.18-.24c0-.15.06-.3.09-.45s.06-.36.08-.54a.4.4,0,0,0-.1-.24.35.35,0,0,0-.58.15Z" transform="translate(-34.63 -49.2)"/><path class="cls-31" d="M335.52,185.11s1.66-.55,3.35,1.43" transform="translate(-34.63 -49.2)"/><path class="cls-21" d="M330.37,200.4,329,211.81s.58,5,8.07,5S350,211.46,350,211.46l-2.62-19.59" transform="translate(-34.63 -49.2)"/><path class="cls-32" d="M330.8,202.29s5.2,1,8.78-.89c2.82-1.52,3.84-5,3.84-5" transform="translate(-34.63 -49.2)"/><path class="cls-33" d="M332.11,186.79s-2.5,3.49-2.25,4.3c.34,1.09,2.25.82,2.25.82" transform="translate(-34.63 -49.2)"/><path class="cls-34" d="M340.17,191.07a5.52,5.52,0,0,1-4.19,2.25c-3.37.36-7.13-1.11-10.48-.74-.75.08-.8,3.54-.78,4.64a7.76,7.76,0,0,0,.95,3.82,5.48,5.48,0,0,0,3.07,2.17,16.15,16.15,0,0,0,7.93.46,9.27,9.27,0,0,0,3.52-1,12.12,12.12,0,0,0,3-2.46c1-1.14,1.72-2.54,3-3.4,1.49-1,3.09-.92,3.92-2.8a10.07,10.07,0,0,0,.63-3.66,72.72,72.72,0,0,0-.06-7.38c-.36-6.05-5.27-8.78-10.22-9.38-2.23-.28-5.47-.36-7.71-.43-1.81-.06-4.3-.8-6,.11-2.9,1.59-1.9,6.63,1,7.55,3.21,1,8.2-.1,11.53.32,2.33.29,2.32,3.65,2.37,4.06A9.45,9.45,0,0,1,340.17,191.07Z" transform="translate(-34.63 -49.2)"/><path class="cls-6" d="M332.89,195.82l-5-.59s-.84,3.62,2.21,3.87C332.87,199.32,332.89,195.82,332.89,195.82Z" transform="translate(-34.63 -49.2)"/><path class="cls-21" d="M345.62,189.41a2.51,2.51,0,0,1,1.3,1.27c1.35,2.66-1.81,6.23-4.63,5-1-.45-.65-3.21,1.39-5.86A1.76,1.76,0,0,1,345.62,189.41Z" transform="translate(-34.63 -49.2)"/><path class="cls-21" d="M388.57,245.22s4.19,21.92,7.27,29.31,20,6.67,20,6.67L410.47,296s-28.14,2.69-34.12-7.2c-8.51-14.09-8.09-39.22-8.09-39.22" transform="translate(-34.63 -49.2)"/><path class="cls-21" d="M404.22,281.51s21-.82,21.43.12-3.57,1-3,1.72,9.83.29,10.06,1.36c.3,1.44-8.12,1.6-8.12,1.6s9.23.29,9.13,1.62c-.08.94-7.13,1.05-9.82,1.43,3,0,7.78.47,7.69,1.44s-4.9,1.15-8.57,1.48c2.31,0,6.52.25,6.47,1.16s-16.66,2.19-27.67,2.92" transform="translate(-34.63 -49.2)"/><path class="cls-22" d="M349.76,208.45C383,214.29,391,248.86,391,248.86l-23.62,7.73-13.15-33.66" transform="translate(-34.63 -49.2)"/><path class="cls-22" d="M351.3,208.45a39.55,39.55,0,0,1,23.47,28.31c4.67,21.67,4.92,48.91,2.52,72.69-38.55,4.73-86.85,1.27-86.85,1.27s-2.82-60.14,10.33-78.63,26.82-22.8,26.82-22.8L340,214Z" transform="translate(-34.63 -49.2)"/><path class="cls-35" d="M326.17,294.57h43.24V297H323.75A2.42,2.42,0,0,1,326.17,294.57Z" transform="translate(-34.63 -49.2)"/><path class="cls-35" d="M422.1,297H361.35L373,259.66a4.57,4.57,0,0,1,4.37-3.22h54.93a1.81,1.81,0,0,1,1.72,2.35Z" transform="translate(-34.63 -49.2)"/><path class="cls-13" d="M424.83,297H364.08l11.62-37.33a4.57,4.57,0,0,1,4.37-3.22H435a1.81,1.81,0,0,1,1.73,2.35Z" transform="translate(-34.63 -49.2)"/><ellipse class="cls-35" cx="402.84" cy="277.33" rx="4.19" ry="3.07" transform="translate(-92.73 64.64) rotate(-15.02)"/><path class="cls-21" d="M314.85,253s-7.91,18.3-6.6,21.53S343.42,280,343.42,280l-1.07,16.69s-37.89.29-54.3.29c-20.81,0-1.52-50.29-1.52-50.29" transform="translate(-34.63 -49.2)"/><path class="cls-21" d="M332.82,279.17s25.15,1.36,25.61,2.54-4.38.82-3.82,1.71,11.73,1.45,11.88,2.76c.2,1.76-9.89,1-9.89,1s11,1.37,10.74,3c-.2,1.12-8.64.45-11.91.6,3.56.29,9.26,1.43,9,2.59s-6,.82-10.41.8c2.76.27,7.76,1,7.61,2.12s-20.17.75-33.42.39" transform="translate(-34.63 -49.2)"/><path class="cls-22" d="M328.25,209.93c-36.12-2.2-45,40.22-45,40.22L316,256.59l5.43-22.08" transform="translate(-34.63 -49.2)"/><path class="cls-6" d="M329.64,206.63A49.13,49.13,0,0,0,340,214c0,.11-2.06,4-4.22,7.75,0,0-8.25-6.52-11.23-11.87A56.55,56.55,0,0,1,329.64,206.63Z" transform="translate(-34.63 -49.2)"/><path class="cls-6" d="M340,214l5,7.09s4.55-2.55,7.94-12.11a15,15,0,0,0-3.75-3.54C346.91,208.41,340,214,340,214Z" transform="translate(-34.63 -49.2)"/><line class="cls-36" x1="280.42" y1="207.19" x2="286.78" y2="190.47"/><path class="cls-36" d="M377.84,253.07a95.07,95.07,0,0,0-6.61-22.76" transform="translate(-34.63 -49.2)"/><line class="cls-15" x1="466.23" y1="255.15" x2="466.23" y2="409.95"/><line class="cls-15" x1="216.93" y1="255.15" x2="216.93" y2="409.95"/><g class="cls-37"><path class="cls-38" d="M439.46,281.17a1.57,1.57,0,0,0,.85-.45c.5-.7-.33-1.44-.87-1.79-.7-.44-1.66-.59-2-1.45a2.29,2.29,0,0,1,1.08-2.56,10.6,10.6,0,0,1,2.21-.95,4.29,4.29,0,0,0,2.17-1.6c.62-1,.49-2.25.57-3.35.32-4.33,4.74-6.48,8.47-6.56,1.86,0,4.71.62,5.95,2.07a3.71,3.71,0,0,1,.85,1.69,3.11,3.11,0,0,1-.83,2.61,27.39,27.39,0,0,1-2.22,1.81c-.72.69-.21,1.4-.37,2.21s-.79,1.29-1.57,1.73c-1.66.92-3.6,1.15-5.4,1.65a4.44,4.44,0,0,0-1.58.71,8.67,8.67,0,0,0-1.37,1.79A5.6,5.6,0,0,1,442,280.9" transform="translate(-34.63 -49.2)"/></g><path class="cls-39" d="M449.83,292.06H446.3v-1.68h3.53a2.07,2.07,0,0,0,2.07-2.07v-2.9a2.07,2.07,0,0,0-2.07-2.07H446.3v-1.68h3.53a3.75,3.75,0,0,1,3.75,3.75v2.9A3.75,3.75,0,0,1,449.83,292.06Z" transform="translate(-34.63 -49.2)"/><path class="cls-39" d="M400.06,230.06h14.26a0,0,0,0,1,0,0v11.11a6.12,6.12,0,0,1-6.12,6.12h-2a6.12,6.12,0,0,1-6.12-6.12V230.06A0,0,0,0,1,400.06,230.06Z"/><path class="cls-40" d="M432.38,294.09s.13,3.36,5.35,3.36h8.17c5.22,0,5.35-3.36,5.35-3.36Z" transform="translate(-34.63 -49.2)"/><rect class="cls-41" x="205.86" y="247.79" width="268.82" height="8.93"/><path class="cls-42" d="M460.1,297l-2.94,0-13-38.88a1.12,1.12,0,0,1,1-1.55h0a1.9,1.9,0,0,1,1.76,1.17Z" transform="translate(-34.63 -49.2)"/><path class="cls-42" d="M506.89,294.57H458.61V297h50.71A2.43,2.43,0,0,0,506.89,294.57Z" transform="translate(-34.63 -49.2)"/><path class="cls-43" d="M201.94,160.6l1.15,11.5s-.92,3.26-7.28,4a11.29,11.29,0,0,1-11.05-5l1.56-10.68" transform="translate(-34.63 -49.2)"/><path class="cls-43" d="M206.25,146.38s4.54,14.41-1.9,18.2c-5.85,3.44-15.61-1.92-16.18-3.74s-3.16-17.33.55-18.5C195.33,140.27,204.31,140.18,206.25,146.38Z" transform="translate(-34.63 -49.2)"/><path class="cls-44" d="M202.35,166s-6.12,1.59-10.68-2.44" transform="translate(-34.63 -49.2)"/><path class="cls-45" d="M210.45,138.17a5.41,5.41,0,0,0-3.55-2.6c-1.42-.28-3,0-4.23-.79-.32-.2-.6-.46-.91-.67a4.33,4.33,0,0,0-3.52-.41,9.55,9.55,0,0,0-3.18,1.76,7.77,7.77,0,0,1-2.25,1.44c-1.54.53-3.25-.1-4.87.07a5.09,5.09,0,0,0-4.18,3.28c-.65,1.79-.25,3.9-1.17,5.57A19.61,19.61,0,0,0,181,148.3a4.73,4.73,0,0,0,.66,3.8,16.83,16.83,0,0,1,1.63,3.26c.26.88.39,1.78.68,2.65.57,1.69,1.61,3.21,3.53,3.38a2.85,2.85,0,0,0,2-.3,2.52,2.52,0,0,0,.83-1.79,9.29,9.29,0,0,0-.21-3.28c.66.36,1.28,1,2,.85a1.11,1.11,0,0,0,.58-.4c1.6-1.6-.21-4.18-.4-5.85a3.3,3.3,0,0,1,3.34-3.5,16.11,16.11,0,0,0,2.37.34c1.56-.12,2.6-1.76,4.12-2.14s2.89,0,4.3.07a4.9,4.9,0,0,0,4.74-4.6A4.82,4.82,0,0,0,210.45,138.17Z" transform="translate(-34.63 -49.2)"/><path class="cls-43" d="M191,155.78c-.55-1.36-1.51-3-3-2.07a3,3,0,0,0-1,1.69c-.69,2.24.91,5.69,3.11,5.37,1.07-.16,1.66-1.43,2.1-2.48" transform="translate(-34.63 -49.2)"/><path class="cls-44" d="M202,152.12s2,3.67,1.69,4.44c-.45,1-2.27.53-2.27.53" transform="translate(-34.63 -49.2)"/><path class="cls-6" d="M200.35,159.65l4.86-.58s.36,3.44-1.83,4C200.7,163.67,200.35,159.65,200.35,159.65Z" transform="translate(-34.63 -49.2)"/><path class="cls-30" d="M205,151.34c0,.15.06.3.1.45a3.15,3.15,0,0,0,.11.44.43.43,0,0,0,.18.24.42.42,0,0,0,.31,0,.41.41,0,0,0,.27-.49c0-.15-.09-.29-.14-.43s-.1-.29-.16-.43a.42.42,0,0,0-.16-.21.34.34,0,0,0-.47.13.39.39,0,0,0,0,.26Z" transform="translate(-34.63 -49.2)"/><path class="cls-31" d="M204,149.61a1.76,1.76,0,0,1,2.54-.32" transform="translate(-34.63 -49.2)"/><path class="cls-30" d="M196.93,153.1a5,5,0,0,0,.08.54,3.73,3.73,0,0,0,.09.46.37.37,0,0,0,.18.23.39.39,0,0,0,.3,0,.4.4,0,0,0,.24-.18.45.45,0,0,0,0-.3c0-.15-.08-.3-.12-.44s-.09-.29-.14-.44a.33.33,0,0,0-.37-.24.34.34,0,0,0-.2.09.33.33,0,0,0-.1.24Z" transform="translate(-34.63 -49.2)"/><path class="cls-31" d="M198,150.36s-1.66-.54-3.36,1.43" transform="translate(-34.63 -49.2)"/><path class="cls-43" d="M208.7,410.55l4.12,33.13-.29,10.87,42.61-.22a1.89,1.89,0,0,0,1.87-1.9h0a1.89,1.89,0,0,0-1.22-1.75l-18.37-8.45L235,407.7" transform="translate(-34.63 -49.2)"/><path class="cls-46" d="M258.76,453.87c-.44-1.37-1.24-2.9-2-3.25l-19.49-8.39c-10.74,4.36-24.64,1-24.64,1l-2.48,14.67a.88.88,0,0,0,.89.87h47.43C259.39,458.8,258.77,453.91,258.76,453.87Z" transform="translate(-34.63 -49.2)"/><path class="cls-47" d="M241.45,443.07a23.68,23.68,0,0,0-2.75,4.62" transform="translate(-34.63 -49.2)"/><path class="cls-47" d="M243.9,444.54a20.08,20.08,0,0,0-2.25,3.92" transform="translate(-34.63 -49.2)"/><path class="cls-47" d="M246,445.61a28.8,28.8,0,0,0-2.12,3.6" transform="translate(-34.63 -49.2)"/><line class="cls-47" x1="175.74" y1="406.43" x2="224.33" y2="406.18"/><path class="cls-47" d="M211.71,448.46s11.42.23,12.4,7.11" transform="translate(-34.63 -49.2)"/><path class="cls-47" d="M252.72,448.9s-3.14,4.48-3.76,6.54" transform="translate(-34.63 -49.2)"/><path class="cls-48" d="M228.7,268c7.06,50.68,12.43,170.39,12.43,170.39H202.38s-6.1-88.09-12.39-143c-10.47-20.52-14.68-34.66-12.81-43.26" transform="translate(-34.63 -49.2)"/><path class="cls-49" d="M207.38,438.34s-6.1-88.09-12.39-143" transform="translate(-34.63 -49.2)"/><path class="cls-43" d="M156,410.55l-2.42,33.13-.29,10.87,42.6-.22a1.9,1.9,0,0,0,1.88-1.9h0a1.91,1.91,0,0,0-1.22-1.75l-18.37-8.45,4.09-34.53" transform="translate(-34.63 -49.2)"/><path class="cls-46" d="M199.53,453.87c-.44-1.37-1.24-2.9-2-3.25L178,442.23c-10.74,4.36-24.64,1-24.64,1l-2.48,14.67a.87.87,0,0,0,.88.87H199.2C200.16,458.8,199.54,453.91,199.53,453.87Z" transform="translate(-34.63 -49.2)"/><path class="cls-47" d="M182.22,443.07a23.2,23.2,0,0,0-2.75,4.62" transform="translate(-34.63 -49.2)"/><path class="cls-47" d="M184.67,444.54a20.69,20.69,0,0,0-2.26,3.92" transform="translate(-34.63 -49.2)"/><path class="cls-47" d="M186.75,445.61a28.8,28.8,0,0,0-2.12,3.6" transform="translate(-34.63 -49.2)"/><line class="cls-47" x1="116.5" y1="406.43" x2="165.1" y2="406.18"/><path class="cls-47" d="M152.48,448.46s11.42.23,12.4,7.11" transform="translate(-34.63 -49.2)"/><path class="cls-47" d="M193.49,448.9s-3.14,4.48-3.76,6.54" transform="translate(-34.63 -49.2)"/><path class="cls-48" d="M153.84,263.26c-3.18,8.69-3.93,24-.47,38.75a10.54,10.54,0,0,1,.28,3c-3,60.85-6.12,133.32-6.12,133.32h38.28s14.44-151.16,17.28-176.19" transform="translate(-34.63 -49.2)"/><path class="cls-49" d="M159.84,263.26c-3.18,8.69-3.93,24-.47,38.75a10.54,10.54,0,0,1,.28,3c-3,60.85-6.12,133.32-6.12,133.32" transform="translate(-34.63 -49.2)"/><path class="cls-49" d="M194.88,344.2s5.84-59.32,7.65-73.41" transform="translate(-34.63 -49.2)"/><path class="cls-49" d="M157.47,290.24a25.72,25.72,0,0,0,16.35-13.17" transform="translate(-34.63 -49.2)"/><path class="cls-49" d="M200.61,287.85s3.75-.59,4.15-2,2.39-13.69,2.39-13.69" transform="translate(-34.63 -49.2)"/><path class="cls-49" d="M219.33,274.48S221.86,286.55,231,287" transform="translate(-34.63 -49.2)"/><line class="cls-49" x1="113.21" y1="381.92" x2="151.87" y2="381.92"/><line class="cls-49" x1="167.24" y1="381.92" x2="206.16" y2="381.92"/><path class="cls-43" d="M238.11,200s8.58,13.17,11.76,13.52c5,.56,29.6-18,29.6-18l12.47,14.31s-23.52,27.73-42.95,29c-15.28,1-33.58-23.25-33.58-23.25" transform="translate(-34.63 -49.2)"/><path class="cls-43" d="M271.72,201.17s21.11-16.39,22.17-16.06-1.85,3.44-.93,3.55,7.61-6.75,8.58-6.13c1.31.83-5.57,7.38-5.57,7.38s8-6.72,8.93-5.67c.66.75-7.18,8.25-7.18,8.25s7.93-5.79,8.6-5-6.35,7.45-6.35,7.45,5.51-4.84,6.39-4-10.81,15.76-21,25.89" transform="translate(-34.63 -49.2)"/><path class="cls-44" d="M291.47,189.58a46.45,46.45,0,0,1-3.46,6.76" transform="translate(-34.63 -49.2)"/><path class="cls-44" d="M290.59,198.13c2.25-2.3,5.24-2.7,8.05-2.57" transform="translate(-34.63 -49.2)"/><path class="cls-46" d="M185,169.6a13.66,13.66,0,0,0,18.1,1.8s18.15,9.15,23.27,47.28S232,276.76,232,276.76H150.87S140.7,181.3,185,169.6Z" transform="translate(-34.63 -49.2)"/><path class="cls-46" d="M203.09,171.4a33.81,33.81,0,0,1,17.51,5.51c10.46,7.45,13.66,16.09,23.39,29.34L220.5,222.83Z" transform="translate(-34.63 -49.2)"/><polygon class="cls-50" points="153.59 250 118.42 232.84 141.38 185.39 176.55 202.55 153.59 250"/><path class="cls-45" d="M184.17,241h20.34a.82.82,0,0,1,.82.82v3a0,0,0,0,1,0,0h-22a0,0,0,0,1,0,0v-3A.82.82,0,0,1,184.17,241Z" transform="translate(91.55 -109.81) rotate(26)"/><path class="cls-45" d="M197.33,236.81A3.08,3.08,0,1,0,199,241,3.2,3.2,0,0,0,197.33,236.81Zm-2,4.07a1.46,1.46,0,1,1,2-.62A1.51,1.51,0,0,1,195.34,240.88Z" transform="translate(-34.63 -49.2)"/><path class="cls-43" d="M166.92,219.07s-6.89,15.27-7.34,19.56,27.33,17.2,27.33,17.2L179.66,273s-44.44-10.91-48.51-24.26,10.15-41,10.15-41" transform="translate(-34.63 -49.2)"/><path class="cls-43" d="M172.72,248.64s26.11,11.85,26.2,13.23-4.82-.59-4.54.53,11.74,5.36,11.47,6.77c-.38,1.9-9.73-2.2-9.73-2.2s10.11,5,9.3,6.61c-.56,1.11-9.14-2.37-12.59-3.28,3.61,1.47,9.17,4.54,8.56,5.67s-6.5-1.11-11.11-2.59c2.79,1.19,7.75,3.63,7.23,4.7s-21.25-5.84-34.93-10.57" transform="translate(-34.63 -49.2)"/><path class="cls-46" d="M185,169.6c-11.61-.19-23,3.31-29.49,9.47-9.71,9.22-18.64,32.29-18.64,32.29l31,12,13.5-26.26" transform="translate(-34.63 -49.2)"/><line class="cls-51" x1="131.08" y1="173.62" x2="141.53" y2="155.52"/><line class="cls-51" x1="134.03" y1="168.51" x2="104.18" y2="156.44"/><path class="cls-51" d="M226.49,218.42c-1.34-10.68-4.26-24.35-4.26-24.35" transform="translate(-34.63 -49.2)"/><line class="cls-51" x1="191.12" y1="163.97" x2="206.5" y2="153.32"/><path class="cls-52" d="M625.42,340a13.23,13.23,0,0,0-8.93-.07,22.67,22.67,0,0,0-4.13,2.61c-2.42,1.67-5.63,3.05-8.47,2a5.23,5.23,0,0,1-3.2-6.24c.69-2.41,3-4.29,5.64-5.16a18.9,18.9,0,0,1,8.34-.51" transform="translate(-34.63 -49.2)"/><path class="cls-53" d="M640.27,365.27c-14.56.2-15-19.49-21-27.2-2.77-3.55-6.43-5.71-11.15-5.42,2.06-1.36,19.23-2.78,22.93-.86a17.66,17.66,0,0,1,8.22,8.58c2.21,4.35,10.26,20.5,1,24.9" transform="translate(-34.63 -49.2)"/><path class="cls-54" d="M612.4,332.07a21.31,21.31,0,0,1,12.31,3,25.51,25.51,0,0,1,8.23,8.83,50.78,50.78,0,0,1,5,12.74,154.82,154.82,0,0,1,3.24,16.26c.94,6.11,1.62,12.28,2.88,18.33.07.32.54.18.49-.13-.81-5.58-1.62-11.16-2.47-16.73a164,164,0,0,0-3.24-16.87c-2.14-8.3-5.6-17.19-12.93-22.27a20.91,20.91,0,0,0-13.56-3.5c-.2,0-.2.33,0,.32Z" transform="translate(-34.63 -49.2)"/><path class="cls-55" d="M646.83,349.92c-5.41-2.05-8.44-7.93-9.44-13.62-1.82-10.3-3.17-20.72-6-30.82-3-10.81-8.24-20.05-13.92-29.62-2.51-4.23-5-10-1.67-13.57a8,8,0,0,1,5.27-2.19c6.79-.57,13.21,3.83,17,9.49s5.43,12.44,7,19.06q1.6,6.72,3.22,13.45c3.74,15.7,7.75,38.11-1.5,47.82" transform="translate(-34.63 -49.2)"/><path class="cls-52" d="M679.91,317.06a18.19,18.19,0,0,1,12-2.17,43,43,0,0,1,11.81,3.76,16.76,16.76,0,0,0,5,1.67,5.28,5.28,0,0,0,4.79-1.76,5,5,0,0,0-.3-5.81,10.79,10.79,0,0,0-5.08-3.44c-4.89-1.85-10.21-2.2-15.43-2.28" transform="translate(-34.63 -49.2)"/><path class="cls-54" d="M694.44,310.14a13.18,13.18,0,0,1,9,2.07,14.13,14.13,0,0,1,5.2,6.73.18.18,0,0,0,.35-.1c-1.72-6.32-8.28-10.08-14.64-9-.22,0-.12.36.09.33Z" transform="translate(-34.63 -49.2)"/><path class="cls-56" d="M617.08,261.3c8.66,5.29,15.76,19.06,20.15,30.93a147,147,0,0,1,7.49,29.42c3.21,21.5,4.66,52.85,3.88,74.57" transform="translate(-34.63 -49.2)"/><path class="cls-55" d="M663.73,345c8.14-3.19,8.46-15.2,15.38-24.13,5.73-7.38,13.43-11.66,27-12.49a58.63,58.63,0,0,0-18.32-3.65,30.51,30.51,0,0,0-17.79,5c-7.37,5.12-18.94,28.8-6.28,35.3" transform="translate(-34.63 -49.2)"/><path class="cls-56" d="M698.66,306.15c-9.23-.71-18.42,3.17-25,9.6-10.1,9.91-10,25.23-10.9,38.35q-1.83,25.56-3.22,51.15" transform="translate(-34.63 -49.2)"/><path class="cls-53" d="M659.92,326.31c-7.22-3.53-6.51-13.51-6.15-19.72.86-15.06,4.23-33.09,13.18-45.92,6.92-9.91,17.18-15.45,29.25-11.59,4,1.27,10.49,6.14,7.94,11.09-1.71,3.3-9,5.47-12,8.15a46.73,46.73,0,0,0-9.39,12.12c-5.09,9.13-7.86,19.35-10.56,29.38-2,7.54-3.93,15.3-12.27,16.49" transform="translate(-34.63 -49.2)"/><path class="cls-52" d="M695.45,343.84a26.89,26.89,0,0,1,10.15-.54,13.2,13.2,0,0,1,5.13,4.64c1.83,3,2.07,11.38-3.57,9.93-2.35-.61-3.43-3.23-4.84-5.2a11.95,11.95,0,0,0-16.17-3.12" transform="translate(-34.63 -49.2)"/><path class="cls-54" d="M708.23,354.23a12.36,12.36,0,0,0-4.41-8.77,34.23,34.23,0,0,0-4.48-3.57,9.08,9.08,0,0,0-4.87-1.19,22.41,22.41,0,0,0-6.26.7.12.12,0,0,0,0,.24,36.22,36.22,0,0,0,5.09-.3,10.84,10.84,0,0,1,5.11.74,13.39,13.39,0,0,1,2.13,1.46c.74.55,1.47,1.12,2.17,1.72a17.38,17.38,0,0,1,3.35,3.61,10.35,10.35,0,0,1,1.72,5.36c0,.26.42.26.41,0Z" transform="translate(-34.63 -49.2)"/><path class="cls-53" d="M707.41,344.42c-6.61-1.23-15.2,2.09-19.91,7-2.21,2.32-4.33,5.31-7.48,5.6s-7.37.59-7.48-6.23c-.09-5.18,3-6.52,5.79-8.33a19.49,19.49,0,0,1,9.33-2.71c3.82-.29,14-1.62,19.75,4.65" transform="translate(-34.63 -49.2)"/><path class="cls-54" d="M698.15,340.4a25,25,0,0,0-17.57,7.32,33,33,0,0,0-6.74,9.43,52.3,52.3,0,0,0-3.46,10.19,122.58,122.58,0,0,0-2.56,15.7c-.83,7.65-1.26,15.35-1.4,23,0,1.13,0,2.26,0,3.39a.24.24,0,0,0,.47,0c.31-4.24.34-8.51.57-12.76.2-3.62.45-7.24.78-10.85a141.38,141.38,0,0,1,2.35-16.4,58.85,58.85,0,0,1,3.23-10.72,33.15,33.15,0,0,1,5.45-8.79,25.67,25.67,0,0,1,16.1-9c.93-.11,1.86-.16,2.8-.18a.17.17,0,0,0,0-.34Z" transform="translate(-34.63 -49.2)"/><path class="cls-54" d="M687.66,254.75a29.12,29.12,0,0,0-9.21,8.22,65.89,65.89,0,0,0-6.74,10.72,102.26,102.26,0,0,0-8.34,24.22A271.56,271.56,0,0,0,659,325.72q-1.71,14.91-2.3,29.92c-.39,10.08-.41,20.17,0,30.24,0,1.25.14,2.5.23,3.75,0,.22.35.22.34,0-.21-10-.47-19.91-.19-29.87S658,340,659,330.21c1-9.53,2.18-19.09,4-28.49a112.54,112.54,0,0,1,7.39-24.43,74.38,74.38,0,0,1,6.14-11.17,38.25,38.25,0,0,1,8.53-9.58,21.73,21.73,0,0,1,2.63-1.68c.08,0,0-.15-.07-.11Z" transform="translate(-34.63 -49.2)"/><path class="cls-57" d="M687.8,387.16v15.32c0,33.9-12.65,55.71-12.65,55.71H636s-12.65-21.81-12.65-55.71V387.16Z" transform="translate(-34.63 -49.2)"/><path class="cls-52" d="M59.15,362.91a20,20,0,0,0-4.64,5.24,6.78,6.78,0,0,0-.13,6.71,7.33,7.33,0,0,0,1.71,1.76,10.21,10.21,0,0,0,7.39,2.11,7.85,7.85,0,0,0,6.12-4.42,33.14,33.14,0,0,0,1.15-4.46c1.23-4.44,5.48-8.07,10.09-8" transform="translate(-34.63 -49.2)"/><path class="cls-53" d="M97.22,378.17c-3.75,3.24-10.39,3-14.44.47-5.64-3.5-8.61-9.89-14.83-12.76a10.82,10.82,0,0,0-7.42-.87c-2.49.72-4.51,2.59-6.8,3.85C58.42,358.2,71,353.8,76,353.82c9.25,0,18.22,6.22,21.93,15.12C99.2,372,99.67,376.05,97.22,378.17Z" transform="translate(-34.63 -49.2)"/><path class="cls-52" d="M140.93,341.15c3.45-1.25,7.39-1.66,10.71-.09a26.58,26.58,0,0,1,5,3.53c2.9,2.27,6.76,4.14,10.16,2.73,3.12-1.29,4.66-5.19,3.84-8.46a10.71,10.71,0,0,0-6.77-7,20.23,20.23,0,0,0-10-.68" transform="translate(-34.63 -49.2)"/><path class="cls-53" d="M114.57,351c-7.23-3.53-6.52-13.51-6.16-19.72.57-9.92.94-20,3.25-29.71,3.12-13.12,11.67-25.8,26.27-28.15,4.27-.69,8.77-1,12.92.34s7.85,4.58,8.4,8.58a4,4,0,0,1-.46,2.75,6.45,6.45,0,0,1-2.88,1.93c-10.61,4.81-18.7,14-21.72,24.57-2.14,7.52-1.81,15.54-3.83,23.08S122.9,349.81,114.57,351" transform="translate(-34.63 -49.2)"/><path class="cls-55" d="M123.13,375.38c12,.18,11.87-10.72,14.79-14.45,5.13-6.54,5.68-15.6,10.39-22.43,3.32-4.81,7.71-7.74,13.37-7.34-2.47-1.86-23.06-3.78-27.49-1.18-5,2.92-7.55,6.48-9.87,11.65-2.64,5.89-12.3,27.78-1.19,33.75" transform="translate(-34.63 -49.2)"/><path class="cls-53" d="M156.54,330a23,23,0,0,0-15.13,4,33.66,33.66,0,0,0-10.14,12.22,75.81,75.81,0,0,0-6.21,17.76c-1.7,7.25-2.84,14.62-3.85,22s-1.87,14.75-2.91,22.12c-.12.81-.22,1.63-.32,2.45,0,.28.44.35.49.07,1.29-7.1,2-14.29,3-21.43,1-7.32,2-14.64,3.54-21.87a87.21,87.21,0,0,1,5.63-18.38A37.49,37.49,0,0,1,140,335.75a23.21,23.21,0,0,1,16.56-5.44c.21,0,.2-.3,0-.32Z" transform="translate(-34.63 -49.2)"/><path class="cls-55" d="M98.54,347.13c-4.58-.36-8.22-4.18-10.11-8.37-4.36-9.69-3.53-20.83-9.69-29.82-3.2-4.67-7.56-8.44-11-12.93-4.87-6.36-7.27-15.38-3.53-22.8,5.65-11.21,17.6-6.13,24.85.4,10,9,18.33,22.22,20.63,35.08,1.51,8.44,3.84,29.59-11.14,38.44" transform="translate(-34.63 -49.2)"/><path class="cls-53" d="M72,277c2.92.07,5.54,2.07,7.57,4a38.2,38.2,0,0,1,6.56,8.36,50.25,50.25,0,0,1,4.43,10.47A126.89,126.89,0,0,1,94,312.93a227.27,227.27,0,0,1,3.77,27.24q1.26,14.41,2,28.87c.47,9.67.72,19.34.92,29,0,1.2,0,2.39.07,3.59a.28.28,0,0,0,.56,0c0-9.88-.23-19.76-.68-29.63s-1.09-19.74-1.92-29.59a249.82,249.82,0,0,0-3.56-27.52,132.54,132.54,0,0,0-3.34-13.44,58.19,58.19,0,0,0-4.34-11.11,40.4,40.4,0,0,0-6.25-8.61c-2-2.11-4.51-4.24-7.42-5a7.63,7.63,0,0,0-1.79-.22.21.21,0,0,0,0,.42Z" transform="translate(-34.63 -49.2)"/><path class="cls-52" d="M58.1,323.27A46.49,46.49,0,0,0,42,325.61a19.85,19.85,0,0,0-6.51,8.33c-1.64,4.24-.84,9.57,2.5,12.59,2.58,2.33,6.23,3,9.66,2.82a10.53,10.53,0,0,0,4.82-1.3c3.67-2.23,4.52-7.18,6.59-11a16.62,16.62,0,0,1,14.39-8.61" transform="translate(-34.63 -49.2)"/><path class="cls-58" d="M44.7,340.78c.14-3.58.47-7.29,2.18-10.51a16.62,16.62,0,0,1,9.16-7.6,17.55,17.55,0,0,1,3.77-.9c1.25-.16,2.52-.16,3.77-.31a.17.17,0,0,0,.05-.33,12.36,12.36,0,0,0-6.81.41,18.43,18.43,0,0,0-6.14,3.14,15.9,15.9,0,0,0-5.91,9.48,36.82,36.82,0,0,0-.62,6.62.28.28,0,0,0,.55,0Z" transform="translate(-34.63 -49.2)"/><path class="cls-53" d="M42,325.61c8.13-1.5,16.76,1.81,22.53,7.87,2.72,2.85,5.33,6.52,9.2,6.87s9,.73,9.18-7.65c.11-6.37-3.74-8-7.11-10.23s-7.46-3-11.46-3.33c-4.69-.35-16.08,0-22.34,6.47" transform="translate(-34.63 -49.2)"/><path class="cls-54" d="M51.42,320.3a29.4,29.4,0,0,1,12.64,2.94,32.88,32.88,0,0,1,8.89,6.5,40.1,40.1,0,0,1,7.87,11.38,65.45,65.45,0,0,1,4.1,12.49,152.62,152.62,0,0,1,3,19.23c1,9.23,1.39,18.5,1.75,27.77.05,1.37.08,2.75.17,4.12a.24.24,0,0,0,.47,0c.11-5.34-.2-10.71-.48-16-.24-4.5-.55-9-1-13.46a170.76,170.76,0,0,0-3-20.13,70.18,70.18,0,0,0-4.13-13.3,40.94,40.94,0,0,0-7.06-11,31.45,31.45,0,0,0-19.81-10.68,31.43,31.43,0,0,0-3.5-.17.17.17,0,0,0,0,.34Z" transform="translate(-34.63 -49.2)"/><path class="cls-54" d="M69.32,357.94c4.43-.54,9.09-.31,13.14,1.75a21.2,21.2,0,0,1,8.16,7.68,34.94,34.94,0,0,1,4,9.53,69.48,69.48,0,0,1,2.16,11.51,67.36,67.36,0,0,1-.34,15.48c0,.21.31.25.35.05a46.1,46.1,0,0,0,.71-14.21,69.81,69.81,0,0,0-2.11-12.17c-1.86-7-5.21-14.05-11.77-17.78-4.35-2.47-9.44-2.79-14.29-2-.11,0-.08.2,0,.19Z" transform="translate(-34.63 -49.2)"/><path class="cls-54" d="M142.3,279.44a29,29,0,0,0-9.21,8.23,66.58,66.58,0,0,0-6.74,10.72A102.08,102.08,0,0,0,118,322.61a271.83,271.83,0,0,0-4.36,27.8q-1.71,14.93-2.29,29.93t0,30.24c0,1.25.14,2.5.24,3.75a.17.17,0,0,0,.34,0c-.22-10-.48-19.91-.2-29.88s.92-19.72,1.92-29.55c1-9.53,2.18-19.08,4-28.49A112.7,112.7,0,0,1,125.07,302a74.77,74.77,0,0,1,6.14-11.16,38.27,38.27,0,0,1,8.53-9.58,22.08,22.08,0,0,1,2.63-1.68c.08,0,0-.16-.07-.12Z" transform="translate(-34.63 -49.2)"/><path class="cls-57" d="M76.85,399.47v9.63c0,38.22,13.39,49.09,13.39,49.09h29.49s13.4-10.87,13.4-49.09v-9.63Z" transform="translate(-34.63 -49.2)"/><line class="cls-59" x1="29.08" y1="409.95" x2="661.5" y2="409.95"/><path class="cls-60" d="M505.24,170.24,506.6,179s.18,5.33,6.17,4.72c6.32-.65,11.48-6.91,11.48-6.91l-5.6-15.68" transform="translate(-34.63 -49.2)"/><path class="cls-60" d="M503.09,149.05c-3.79,4.18-9.07,21.11-1.88,24,6.58,2.63,15.83.09,18.29-9.82C522.09,152.8,513.06,138.05,503.09,149.05Z" transform="translate(-34.63 -49.2)"/><path class="cls-61" d="M506.06,174.29a13.24,13.24,0,0,0,9.86-3.75" transform="translate(-34.63 -49.2)"/><path class="cls-62" d="M518.72,162.1h0s0,0,0,0Z" transform="translate(-34.63 -49.2)"/><path class="cls-62" d="M518.67,162.07l-.06.09s0,.05,0,.07a0,0,0,0,0,.06,0l.07-.09a.06.06,0,0,0,0-.07s0,0-.07,0Z" transform="translate(-34.63 -49.2)"/><path class="cls-61" d="M503.68,159.27s-2.36,3.3-2.12,4.07c.32,1,2.12.77,2.12.77" transform="translate(-34.63 -49.2)"/><path class="cls-63" d="M507.81,160.33a.61.61,0,0,0,.35.77c.28.07.57-.18.65-.54a.61.61,0,0,0-.35-.77C508.18,159.72,507.89,160,507.81,160.33Z" transform="translate(-34.63 -49.2)"/><path class="cls-63" d="M500.19,157.76a.61.61,0,0,0,.35.77c.28.07.57-.18.65-.54a.61.61,0,0,0-.36-.77C500.56,157.15,500.27,157.4,500.19,157.76Z" transform="translate(-34.63 -49.2)"/><path class="cls-6" d="M504.57,166.83l-4.62-1.3s-.57,3.3,1.5,3.94C504,170.26,504.57,166.83,504.57,166.83Z" transform="translate(-34.63 -49.2)"/><path class="cls-34" d="M516.3,165c-5.34-5.34-3.41-9.95-3.41-9.95s-12.09-.37-16.47-4.75c0,0,3.18-9.71,11.67-6.06,4.84-2.51,12.49-.06,15.61,5,4.85,7.9-.06,16.74-3,18.36" transform="translate(-34.63 -49.2)"/><path class="cls-34" d="M519.45,148.14c-.8-1.4-.07-3.62.65-4.62a5.08,5.08,0,0,1,6.18-1.49,5.31,5.31,0,0,1,2.69,5.81,5.55,5.55,0,0,1-5,4.1,2.5,2.5,0,0,1-2.37-1" transform="translate(-34.63 -49.2)"/><path class="cls-60" d="M514,162.15a2.12,2.12,0,0,1,1.4-1.69c1.8-.65,2.91,1.72,2.7,3.59a5.33,5.33,0,0,1-1.28,3c-1,1.2-2.32,1.46-3,0" transform="translate(-34.63 -49.2)"/><path class="cls-64" d="M507.79,157.2a3.29,3.29,0,0,1,3.42,2.69" transform="translate(-34.63 -49.2)"/><path class="cls-64" d="M500.11,155.47a3.44,3.44,0,0,1,3.17.46" transform="translate(-34.63 -49.2)"/><path class="cls-60" d="M521.29,309.08,508.58,443.66l-9.81,11s33.61-1.4,34.72-2.53-.43-8.79-.43-8.79l22.6-135.64Z" transform="translate(-34.63 -49.2)"/><path class="cls-34" d="M528,452.09l6.08-5-.73-2.63-8.81,7.69-3.77,0-15.3-6.51-16.4,9.08a2,2,0,0,0,1.06,3.61l23.39-.14,6.17-4.33h1.75l0,4.28,12.63-.09,0-6Z" transform="translate(-34.63 -49.2)"/><path class="cls-60" d="M560.34,309.08l6,134.58-9.81,11s33.62-1.4,34.73-2.53-.44-8.79-.44-8.79l3.88-135.64Z" transform="translate(-34.63 -49.2)"/><path class="cls-34" d="M585.82,452.09l6.08-5-.73-2.63-8.8,7.69-3.77,0-15.31-6.51-16.39,9.08a2,2,0,0,0,1.05,3.61l23.39-.14,6.17-4.33h1.76l0,4.28,12.62-.09,0-6Z" transform="translate(-34.63 -49.2)"/><path class="cls-48" d="M573.94,241.58a46.83,46.83,0,0,1,13.44,14.24c14.07,22.41,10.28,76.71,10.28,76.71H510.8s8.48-69.29,13.87-84.76" transform="translate(-34.63 -49.2)"/><path class="cls-65" d="M556.55,233.49s16.36,12.14,26.18,27.36c11.47,17.78,10.57,71.68,10.57,71.68" transform="translate(-34.63 -49.2)"/><path class="cls-65" d="M554.46,250.65c11.24,9.94,20.47,0,20.47,0" transform="translate(-34.63 -49.2)"/><path class="cls-60" d="M496.42,218.56s-20.26,25.19-31.68,22.22-28.65-40.9-28.65-40.9L449.45,194s15.11,19.77,17.3,19.87,16.61-15.84,16.61-15.84" transform="translate(-34.63 -49.2)"/><path class="cls-60" d="M453,198.58s-11.43-16.72-12.3-16.72.57,3-.14,2.85-4.08-6.8-5-6.57c-1.17.31,2.06,6.25,2.06,6.25s-.92-1.14-1.86-.57c-.67.4-.12,2.2-.12,2.2s-1-.69-1.67-.26-.15,2-.15,2-.92-1.3-1.7-.34,2.28,9.83,7.46,19.74" transform="translate(-34.63 -49.2)"/><path class="cls-61" d="M441.28,186.2a34.61,34.61,0,0,0,1,5.84" transform="translate(-34.63 -49.2)"/><path class="cls-66" d="M432.28,189.42a16.66,16.66,0,0,0,2.87,3.58.42.42,0,0,0,.34.13c.09-1.56-1-3.3-1.56-4.76l.58-.27c.45.87.94,1.75,1.47,2.58a6.24,6.24,0,0,0,1.31,1.6c.08.06.1,0,0,.05s0,0,0-.05a20.64,20.64,0,0,0-1.49-5.6l.61-.25A18.52,18.52,0,0,0,439,191a.46.46,0,0,0,.17.1s0,0,0-.09c.06-2-.76-4-1.26-5.89.72,1.95,1.73,3.86,1.7,6-.88,2.08-3.46-3.64-3.82-4.4l.62-.26c.3.91,3.12,7.5.52,6.47-1.42-1.19-2.11-2.95-3-4.53l.58-.27a18.34,18.34,0,0,1,1.45,4.5,1,1,0,0,1-.17.81c-1.14.76-3-3.16-3.51-4Z" transform="translate(-34.63 -49.2)"/><path class="cls-67" d="M506.76,177.56c-13.68,0-30.54,25.55-30.54,25.55l20.84,19.49,29.13-30.76" transform="translate(-34.63 -49.2)"/><path class="cls-67" d="M526.12,174.87s12-.55,19.77,4.82c14.38,10,28.05,61.89,28.05,61.89-14.42,15-50.35,20.75-50.35,20.75S512.41,242.08,504,233.69s-10.76-16.47-7.3-33.69Z" transform="translate(-34.63 -49.2)"/><path class="cls-6" d="M522.21,171.07,512.77,182l5.84,6.29s4.14-7.06,7.51-13.43Z" transform="translate(-34.63 -49.2)"/><path class="cls-6" d="M512.77,182l-5.52,6.21a31,31,0,0,1-3.57-10.28l2.51-1.63Z" transform="translate(-34.63 -49.2)"/><path class="cls-68" d="M495.81,221c-1.77-7.5,1.25-20.53,1.25-20.53" transform="translate(-34.63 -49.2)"/><path class="cls-60" d="M547.32,220.22c-12,45.33-28.86,73.8-28.86,73.8l-14.63-6.43c14.82-46.57,18.84-73.47,18.84-73.47" transform="translate(-34.63 -49.2)"/><path class="cls-67" d="M524.1,194l-5,23.24,29.52,5.28a163,163,0,0,0,4.32-20" transform="translate(-34.63 -49.2)"/><line class="cls-68" x1="513.63" y1="173.4" x2="517.49" y2="157.94"/><line class="cls-68" x1="484.53" y1="168.07" x2="487.69" y2="152.29"/><path class="cls-60" d="M526.19,278.91s-7.22,17.81-10.27,17.81-29.72.17-37.42.17c.14-1.38,6.53-4.14,11.94-5.79,3.23-1,13.39-3.51,13.39-3.51L509.5,269" transform="translate(-34.63 -49.2)"/></g></g></svg>