<svg width="1157" height="439" viewBox="0 0 1157 439" fill="none" xmlns="http://www.w3.org/2000/svg">
<rect x="408.977" y="306.648" width="12" height="81" transform="rotate(114 408.977 306.648)" fill="url(#paint0_linear_1354_989)"/>
<path d="M415.354 339.042C404.758 334.325 399.993 321.912 404.711 311.316C409.428 300.721 421.841 295.956 432.437 300.673C443.032 305.391 447.797 317.804 443.08 328.399C438.362 338.995 425.949 343.76 415.354 339.042ZM427.773 311.149C422.963 309.007 417.328 311.17 415.186 315.98C413.044 320.79 415.208 326.425 420.018 328.567C424.828 330.709 430.463 328.545 432.604 323.735C434.746 318.925 432.583 313.29 427.773 311.149Z" fill="url(#paint1_linear_1354_989)"/>
<rect x="248" y="40" width="12" height="81" fill="url(#paint2_linear_1354_989)"/>
<path d="M275 21C275 32.598 265.598 42 254 42C242.402 42 233 32.598 233 21C233 9.40202 242.402 0 254 0C265.598 0 275 9.40202 275 21ZM244.467 21C244.467 26.2651 248.735 30.5334 254 30.5334C259.265 30.5334 263.533 26.2651 263.533 21C263.533 15.7349 259.265 11.4666 254 11.4666C248.735 11.4666 244.467 15.7349 244.467 21Z" fill="url(#paint3_linear_1354_989)"/>
<path fill-rule="evenodd" clip-rule="evenodd" d="M231.5 354C298.05 354 352 300.274 352 234C352 167.726 298.05 114 231.5 114C164.95 114 111 167.726 111 234C111 300.274 164.95 354 231.5 354ZM230 207.141L153 179.5L231 149.5L309.5 179.5L232 207.143V219.652L268.33 207C280.469 240.503 278.201 255.576 253.33 282C253.33 282 253.661 296 253.33 299.5C253 303 246.661 310.5 242.33 312.5C238 314.5 225 313.5 220.5 312.5C216 311.5 209 303.5 208.33 299.5C207.661 295.5 208.33 282 208.33 282C185.675 257.458 183.438 240.948 194.33 207L230 219.645V207.141Z" fill="url(#paint4_linear_1354_989)"/>
<rect x="125.949" y="397.245" width="12" height="81" transform="rotate(-146 125.949 397.245)" fill="url(#paint5_linear_1354_989)"/>
<path d="M92.9391 397.899C99.4246 388.284 112.477 385.747 122.092 392.232C131.707 398.718 134.244 411.77 127.759 421.385C121.273 431 108.221 433.537 98.6058 427.052C88.9907 420.566 86.4536 407.514 92.9391 397.899ZM118.252 414.973C121.197 410.608 120.045 404.683 115.68 401.739C111.315 398.794 105.39 399.946 102.445 404.311C99.5011 408.676 100.653 414.601 105.018 417.546C109.383 420.49 115.308 419.338 118.252 414.973Z" fill="url(#paint6_linear_1354_989)"/>
<rect x="42.6797" y="182.482" width="12" height="81" transform="rotate(-67 42.6797 182.482)" fill="url(#paint7_linear_1354_989)"/>
<path d="M35.7413 150.205C46.4173 154.737 51.3982 167.065 46.8666 177.741C42.3349 188.417 30.0066 193.398 19.3306 188.866C8.6546 184.335 3.67366 172.007 8.20535 161.331C12.737 150.655 25.0653 145.674 35.7413 150.205ZM23.811 178.311C28.6576 180.369 34.2542 178.107 36.3115 173.261C38.3687 168.414 36.1075 162.818 31.2609 160.76C26.4144 158.703 20.8177 160.964 18.7604 165.811C16.7032 170.657 18.9644 176.254 23.811 178.311Z" fill="url(#paint8_linear_1354_989)"/>
<rect x="487" y="81" width="5" height="294" rx="2.5" fill="url(#paint9_linear_1354_989)"/>
<path d="M530.785 125.484V124.638H559.024C562.976 124.638 566.611 124.986 569.932 125.684C573.285 126.348 576.273 127.244 578.896 128.373C581.553 129.502 583.844 130.747 585.77 132.108C587.695 133.437 589.322 134.798 590.65 136.192C592.975 138.517 594.95 141.106 596.577 143.962C598.204 146.784 599.416 149.772 600.213 152.927C601.043 156.081 601.458 159.335 601.458 162.688C601.458 166.042 601.06 169.229 600.263 172.251C599.466 175.272 598.32 178.078 596.826 180.668C595.332 183.225 593.539 185.549 591.447 187.641C589.389 189.732 586.981 191.625 584.226 193.318C581.868 194.713 579.162 195.842 576.107 196.705C573.053 197.568 568.919 198 563.706 198H530.785V197.203H531.781C534.072 197.203 535.782 196.34 536.911 194.613C538.04 192.887 538.604 191.061 538.604 189.135V133.752C538.604 131.893 538.289 130.332 537.658 129.07C537.061 127.809 536.247 126.896 535.218 126.331C534.188 125.767 533.043 125.484 531.781 125.484H530.785ZM546.175 128.124V186.246C546.175 189.102 546.623 191.21 547.52 192.571C548.449 193.899 549.877 194.763 551.803 195.161C553.729 195.56 556.551 195.759 560.27 195.759C565.582 195.759 570.064 195.244 573.717 194.215C577.369 193.152 580.905 190.812 584.325 187.192C586.849 184.503 588.874 181.216 590.401 177.331C591.929 173.446 592.692 168.748 592.692 163.236C592.692 158.887 592.078 154.587 590.85 150.337C589.621 146.054 587.745 142.252 585.222 138.932C582.399 135.18 578.764 132.241 574.314 130.116C569.898 127.991 564.569 126.929 558.327 126.929C555.106 126.929 551.056 127.327 546.175 128.124ZM667.599 158.206V133.652C667.599 131.262 666.951 129.303 665.656 127.775C664.361 126.248 662.353 125.484 659.63 125.484V124.638H682.988V125.484C680.266 125.484 678.273 126.248 677.012 127.775C675.75 129.27 675.119 131.229 675.119 133.652V189.135C675.119 194.514 677.742 197.203 682.988 197.203V198H659.63V197.203C662.12 197.203 664.062 196.539 665.457 195.211C666.885 193.85 667.599 191.857 667.599 189.234V160.447H625.563V189.135C625.563 191.691 626.277 193.684 627.705 195.111C629.166 196.506 631.108 197.203 633.532 197.203V198H610.174V197.203C612.697 197.203 614.623 196.506 615.951 195.111C617.312 193.684 617.993 191.691 617.993 189.135V133.652C617.993 128.207 615.387 125.484 610.174 125.484V124.638H633.532V125.484C630.776 125.484 628.751 126.248 627.456 127.775C626.194 129.27 625.563 131.229 625.563 133.652V158.206H667.599ZM762.477 198H747.087V185.848L746.838 185.648C744.713 190.596 741.525 194.215 737.275 196.506C733.059 198.797 728.643 199.942 724.027 199.942C718.814 199.942 714.116 198.697 709.933 196.207C705.782 193.717 702.728 190.646 700.769 186.993C699.374 184.403 698.494 181.714 698.129 178.925C697.764 176.103 697.581 173.181 697.581 170.159V133.652C697.581 131.461 697.133 129.618 696.236 128.124C695.373 126.63 693.281 125.75 689.961 125.484V124.638H713.021V125.484C709.634 125.883 707.476 126.862 706.546 128.423C705.616 129.983 705.151 131.727 705.151 133.652V169.562C705.151 176.866 705.898 182.262 707.393 185.748C708.986 189.467 711.377 192.372 714.564 194.464C717.752 196.556 721.371 197.602 725.422 197.602C727.115 197.602 729.124 197.303 731.448 196.705C733.772 196.107 735.947 195.111 737.973 193.717C744.049 189.566 747.087 182.909 747.087 173.745V133.652C747.087 131.627 746.622 129.834 745.692 128.273C744.763 126.713 742.571 125.783 739.118 125.484V124.638H762.576V125.484C759.189 125.65 757.015 126.597 756.052 128.323C755.089 130.05 754.607 131.793 754.607 133.553V189.135C754.607 191.061 754.923 192.588 755.554 193.717C756.218 194.812 757.114 195.593 758.243 196.058C759.405 196.522 760.816 196.904 762.477 197.203V198ZM797.091 198H769.648V197.203H770.645C772.504 197.203 774.098 196.539 775.426 195.211C776.787 193.85 777.468 191.824 777.468 189.135V133.752C777.468 131.129 776.837 129.104 775.575 127.676C774.347 126.215 772.67 125.484 770.545 125.484H769.648V124.638H793.604C796.759 124.638 799.664 125.103 802.32 126.032C804.977 126.929 807.218 128.19 809.044 129.817C810.903 131.411 812.331 133.237 813.327 135.296C814.323 137.321 814.821 139.529 814.821 141.92C814.821 146.336 813.394 149.922 810.538 152.678C807.683 155.434 803.848 157.459 799.033 158.754V158.953C801.225 159.186 803.333 159.534 805.358 159.999C807.384 160.464 809.21 161.111 810.837 161.941C812.464 162.771 813.991 163.851 815.419 165.179C816.714 166.374 817.81 167.686 818.706 169.113C819.603 170.541 820.283 172.102 820.748 173.795C821.213 175.455 821.445 177.165 821.445 178.925C821.445 182.743 820.449 186.03 818.457 188.786C816.498 191.542 814.273 193.634 811.783 195.062C808.23 197.021 803.333 198 797.091 198ZM785.038 158.306H789.819C793.737 158.306 796.526 157.907 798.187 157.11C799.249 156.579 800.345 155.849 801.474 154.919C802.636 153.989 803.731 152.528 804.761 150.536C805.823 148.544 806.354 146.137 806.354 143.314C806.354 141.123 806.006 139.048 805.309 137.089C804.611 135.097 803.599 133.337 802.271 131.81C800.942 130.282 799.365 129.087 797.539 128.224C795.713 127.36 793.721 126.929 791.562 126.929C789.67 126.929 787.495 127.294 785.038 128.024V158.306ZM792.559 160.547H785.038V186.993C785.038 188.753 785.204 190.23 785.536 191.426C785.901 192.588 786.864 193.601 788.425 194.464C789.985 195.327 792.393 195.759 795.646 195.759C802.387 195.759 807.185 193.518 810.04 189.035C811.999 185.947 812.979 182.478 812.979 178.626C812.979 175.837 812.48 173.313 811.484 171.056C810.521 168.798 809.177 166.922 807.45 165.428C805.757 163.9 803.615 162.705 801.025 161.842C798.436 160.979 795.613 160.547 792.559 160.547Z" fill="url(#paint10_linear_1354_989)"/>
<path d="M530.586 253.484V252.638H574.314V264.192H573.617C573.617 258.017 569.5 254.929 561.266 254.929H545.976V288.248H559.423C562.079 288.248 564.453 287.816 566.545 286.953C568.637 286.09 569.832 284.114 570.131 281.026H570.878V297.661H570.131C569.832 295.769 569.268 294.324 568.438 293.328C567.607 292.299 566.777 291.618 565.947 291.286C565.15 290.954 564.437 290.788 563.806 290.788C562.61 290.589 561.365 290.489 560.07 290.489H545.976V316.537C545.976 318.496 546.341 320.189 547.071 321.617C547.835 323.045 549.578 323.759 552.301 323.759H563.208C565.831 323.759 567.989 323.377 569.683 322.613C571.376 321.85 572.704 320.787 573.667 319.426C574.663 318.064 575.493 316.421 576.157 314.495H576.854L574.314 326H530.586V325.203H531.582C533.143 325.203 534.67 324.572 536.164 323.311C537.658 322.049 538.405 319.99 538.405 317.135V261.852C538.405 259.594 537.891 257.635 536.861 255.975C535.865 254.314 534.105 253.484 531.582 253.484H530.586ZM582.781 253.484V252.638H611.021C614.972 252.638 618.607 252.986 621.928 253.684C625.281 254.348 628.27 255.244 630.893 256.373C633.549 257.502 635.84 258.747 637.766 260.108C639.691 261.437 641.318 262.798 642.646 264.192C644.971 266.517 646.946 269.106 648.573 271.962C650.2 274.784 651.412 277.772 652.209 280.927C653.039 284.081 653.454 287.335 653.454 290.688C653.454 294.042 653.056 297.229 652.259 300.251C651.462 303.272 650.316 306.078 648.822 308.668C647.328 311.225 645.535 313.549 643.443 315.641C641.385 317.732 638.978 319.625 636.222 321.318C633.864 322.713 631.158 323.842 628.104 324.705C625.049 325.568 620.915 326 615.702 326H582.781V325.203H583.777C586.068 325.203 587.778 324.34 588.907 322.613C590.036 320.887 590.601 319.061 590.601 317.135V261.752C590.601 259.893 590.285 258.332 589.654 257.07C589.057 255.809 588.243 254.896 587.214 254.331C586.185 253.767 585.039 253.484 583.777 253.484H582.781ZM598.171 256.124V314.246C598.171 317.102 598.619 319.21 599.516 320.571C600.445 321.899 601.873 322.763 603.799 323.161C605.725 323.56 608.547 323.759 612.266 323.759C617.578 323.759 622.061 323.244 625.713 322.215C629.365 321.152 632.901 318.812 636.321 315.192C638.845 312.503 640.87 309.216 642.397 305.331C643.925 301.446 644.688 296.748 644.688 291.236C644.688 286.887 644.074 282.587 642.846 278.337C641.617 274.054 639.741 270.252 637.218 266.932C634.396 263.18 630.76 260.241 626.311 258.116C621.895 255.991 616.565 254.929 610.323 254.929C607.103 254.929 603.052 255.327 598.171 256.124ZM734.785 326H719.396V313.848L719.146 313.648C717.021 318.596 713.834 322.215 709.584 324.506C705.367 326.797 700.951 327.942 696.336 327.942C691.123 327.942 686.425 326.697 682.241 324.207C678.091 321.717 675.036 318.646 673.077 314.993C671.683 312.403 670.803 309.714 670.438 306.925C670.072 304.103 669.89 301.181 669.89 298.159V261.652C669.89 259.461 669.441 257.618 668.545 256.124C667.682 254.63 665.59 253.75 662.27 253.484V252.638H685.329V253.484C681.942 253.883 679.784 254.862 678.854 256.423C677.925 257.983 677.46 259.727 677.46 261.652V297.562C677.46 304.866 678.207 310.262 679.701 313.748C681.295 317.467 683.686 320.372 686.873 322.464C690.061 324.556 693.68 325.602 697.73 325.602C699.424 325.602 701.433 325.303 703.757 324.705C706.081 324.107 708.256 323.111 710.281 321.717C716.357 317.566 719.396 310.909 719.396 301.745V261.652C719.396 259.627 718.931 257.834 718.001 256.273C717.071 254.713 714.88 253.783 711.427 253.484V252.638H734.885V253.484C731.498 253.65 729.323 254.597 728.36 256.323C727.397 258.05 726.916 259.793 726.916 261.553V317.135C726.916 319.061 727.231 320.588 727.862 321.717C728.526 322.812 729.423 323.593 730.552 324.058C731.714 324.522 733.125 324.904 734.785 325.203V326ZM808.247 269.073H807.4C806.77 265.487 805.076 262.449 802.32 259.959C799.598 257.469 796.46 255.659 792.907 254.53C789.354 253.368 786.034 252.787 782.946 252.787C778.729 252.787 774.762 253.684 771.043 255.477C767.357 257.236 764.17 259.743 761.48 262.997C758.791 266.218 756.699 270.103 755.205 274.651C753.711 279.167 752.964 284.081 752.964 289.394C752.964 294.54 753.678 299.321 755.105 303.737C756.566 308.12 758.675 311.938 761.431 315.192C764.22 318.413 767.44 320.854 771.093 322.514C774.745 324.174 778.796 325.004 783.245 325.004C786.964 325.004 791.048 324.257 795.497 322.763C799.946 321.235 803.964 318.712 807.55 315.192V318.031C803.134 321.451 799.083 323.958 795.397 325.552C791.745 327.146 787.18 327.942 781.701 327.942C775.924 327.942 770.645 326.896 765.863 324.805C761.115 322.68 757.098 319.824 753.811 316.238C750.523 312.652 748.033 308.618 746.34 304.136C744.646 299.653 743.8 295.038 743.8 290.29C743.8 283.151 745.56 276.527 749.079 270.418C752.599 264.275 757.363 259.428 763.373 255.875C769.383 252.289 775.907 250.496 782.946 250.496C787.296 250.496 791.928 251.144 796.842 252.438L802.021 253.883C803.018 254.082 803.864 254.182 804.562 254.182C805.856 254.182 806.72 253.999 807.151 253.634C807.583 253.235 807.915 252.538 808.147 251.542H808.944L808.247 269.073ZM848.888 251.741L870.852 314.595C872.014 317.849 873.109 320.206 874.139 321.667C875.168 323.128 876.147 324.058 877.077 324.456C878.04 324.821 879.252 325.07 880.713 325.203V326H856.757V325.203C859.214 325.203 861.106 324.971 862.435 324.506C863.763 324.041 864.427 322.779 864.427 320.721C864.427 319.592 864.111 318.081 863.48 316.188C863.348 315.923 863.281 315.724 863.281 315.591L856.757 296.117H831.356L825.529 314.146C824.732 316.604 824.334 318.579 824.334 320.073C824.334 322.132 824.849 323.51 825.878 324.207C826.907 324.871 828.368 325.203 830.261 325.203V326H813.028V325.203C815.485 324.971 817.444 324.041 818.905 322.414C820.399 320.754 821.694 318.247 822.79 314.894L843.509 251.741H848.888ZM832.203 293.478H855.562L843.608 258.664H843.409L832.203 293.478ZM940.628 266.932H939.831C939.466 262.15 938.071 259.062 935.647 257.668C933.224 256.24 930.235 255.526 926.683 255.526H912.09V317.135C912.09 322.348 914.746 325.037 920.059 325.203V326H896.7V325.203C898.892 325.137 900.734 324.506 902.229 323.311C903.756 322.082 904.52 320.023 904.52 317.135V255.526H889.927C886.374 255.526 883.386 256.24 880.962 257.668C878.571 259.062 877.177 262.15 876.778 266.932H875.981V249.002H876.778C877.31 249.832 877.774 250.446 878.173 250.845C878.571 251.243 879.086 251.592 879.717 251.891C880.348 252.156 881.078 252.355 881.908 252.488C882.771 252.588 883.784 252.638 884.946 252.638H932.46C935.614 252.638 938.071 251.426 939.831 249.002H940.628V266.932ZM969.415 252.638V253.484C967.224 253.484 965.364 254.099 963.837 255.327C962.31 256.556 961.546 258.598 961.546 261.453V317.135C961.546 319.957 962.359 322.016 963.986 323.311C965.613 324.572 967.423 325.203 969.415 325.203V326H946.156V325.203C948.281 325.203 950.107 324.589 951.635 323.36C953.195 322.099 953.976 320.023 953.976 317.135V261.453C953.976 258.398 953.195 256.307 951.635 255.178C950.107 254.049 948.281 253.484 946.156 253.484V252.638H969.415ZM1055.98 289.394C1055.98 296.267 1054.27 302.658 1050.85 308.568C1047.46 314.479 1042.83 319.193 1036.95 322.713C1031.07 326.199 1024.57 327.942 1017.43 327.942C1010.25 327.942 1003.68 326.199 997.704 322.713C991.728 319.193 987.013 314.462 983.56 308.519C980.14 302.575 978.43 296.101 978.43 289.095C978.43 283.716 979.442 278.669 981.468 273.954C983.526 269.206 986.382 265.072 990.034 261.553C993.72 258.033 997.903 255.311 1002.58 253.385C1007.3 251.459 1012.21 250.496 1017.33 250.496C1022.34 250.496 1027.16 251.426 1031.77 253.285C1036.39 255.111 1040.52 257.768 1044.17 261.254C1047.86 264.74 1050.75 268.874 1052.84 273.655C1054.93 278.437 1055.98 283.683 1055.98 289.394ZM1047.21 289.593C1047.21 279.831 1045.48 272.194 1042.03 266.683C1038.58 261.171 1034.59 257.485 1030.08 255.626C1025.56 253.733 1021.31 252.787 1017.33 252.787C1014.24 252.787 1011.04 253.302 1007.71 254.331C1004.39 255.327 1001.16 257.17 998.003 259.859C994.882 262.549 992.309 266.334 990.283 271.215C988.258 276.096 987.245 282.122 987.245 289.294C987.245 295.603 988.075 301.114 989.735 305.829C991.429 310.511 993.736 314.346 996.658 317.334C999.613 320.289 1002.85 322.431 1006.37 323.759C1009.92 325.054 1013.61 325.701 1017.43 325.701C1020.85 325.701 1024.3 325.104 1027.79 323.908C1031.31 322.68 1034.51 320.704 1037.4 317.981C1040.32 315.226 1042.68 311.507 1044.47 306.825C1046.3 302.11 1047.21 296.366 1047.21 289.593ZM1141.04 252.638V253.484C1139.18 253.717 1137.71 254.082 1136.61 254.58C1135.55 255.045 1134.72 255.991 1134.12 257.419C1133.52 258.813 1133.22 260.839 1133.22 263.495V327.843H1132.72L1076.4 264.989V310.112C1076.4 313.864 1076.54 316.653 1076.84 318.479C1077.14 320.306 1077.57 321.617 1078.14 322.414C1079.37 324.141 1081.51 325.07 1084.56 325.203V326H1066.19V325.203C1068.24 325.104 1069.84 324.672 1070.97 323.908C1072.13 323.111 1072.94 321.684 1073.41 319.625C1073.91 317.533 1074.15 314.396 1074.15 310.212V262.35L1071.71 259.61C1069.56 257.153 1067.83 255.609 1066.53 254.979C1065.24 254.314 1063.63 253.816 1061.7 253.484V252.638H1075.5L1130.98 314.794V267.43C1130.98 263.877 1130.83 261.221 1130.53 259.461C1130.27 257.701 1129.52 256.29 1128.29 255.228C1127.1 254.165 1125.2 253.584 1122.61 253.484V252.638H1141.04Z" fill="url(#paint11_linear_1354_989)"/>
<defs>
<linearGradient id="paint0_linear_1354_989" x1="414.977" y1="306.648" x2="414.977" y2="387.648" gradientUnits="userSpaceOnUse">
<stop stop-color="#EB6C6A"/>
<stop offset="1" stop-color="#F15E78"/>
</linearGradient>
<linearGradient id="paint1_linear_1354_989" x1="443.08" y1="328.399" x2="404.711" y2="311.316" gradientUnits="userSpaceOnUse">
<stop stop-color="#F96E66"/>
<stop offset="1" stop-color="#FA6D70"/>
</linearGradient>
<linearGradient id="paint2_linear_1354_989" x1="254" y1="40" x2="254" y2="121" gradientUnits="userSpaceOnUse">
<stop stop-color="#5B3892"/>
<stop offset="1" stop-color="#9E318E"/>
</linearGradient>
<linearGradient id="paint3_linear_1354_989" x1="254" y1="0" x2="254" y2="42" gradientUnits="userSpaceOnUse">
<stop stop-color="#3A3790"/>
<stop offset="1" stop-color="#5B3892"/>
</linearGradient>
<linearGradient id="paint4_linear_1354_989" x1="232" y1="114" x2="232" y2="354" gradientUnits="userSpaceOnUse">
<stop stop-color="#9B3589"/>
<stop offset="0.411506" stop-color="#DF2B85"/>
<stop offset="0.719042" stop-color="#F15F77"/>
<stop offset="1" stop-color="#F78163"/>
</linearGradient>
<linearGradient id="paint5_linear_1354_989" x1="131.949" y1="397.245" x2="131.949" y2="478.245" gradientUnits="userSpaceOnUse">
<stop stop-color="#F29E3D"/>
<stop offset="1" stop-color="#F58065"/>
</linearGradient>
<linearGradient id="paint6_linear_1354_989" x1="98.6058" y1="427.052" x2="122.092" y2="392.232" gradientUnits="userSpaceOnUse">
<stop stop-color="#FAAE17"/>
<stop offset="1" stop-color="#F79F39"/>
</linearGradient>
<linearGradient id="paint7_linear_1354_989" x1="48.6797" y1="182.482" x2="48.6797" y2="263.482" gradientUnits="userSpaceOnUse">
<stop stop-color="#D32B88"/>
<stop offset="1" stop-color="#DA2887"/>
</linearGradient>
<linearGradient id="paint8_linear_1354_989" x1="8.20535" y1="161.331" x2="46.8666" y2="177.741" gradientUnits="userSpaceOnUse">
<stop stop-color="#C92D85"/>
<stop offset="1" stop-color="#C93387"/>
</linearGradient>
<linearGradient id="paint9_linear_1354_989" x1="489.5" y1="81" x2="489.5" y2="375" gradientUnits="userSpaceOnUse">
<stop stop-color="#684086"/>
<stop offset="0.472083" stop-color="#DF2F84"/>
<stop offset="1" stop-color="#F5A94C"/>
</linearGradient>
<linearGradient id="paint10_linear_1354_989" x1="677.5" y1="122" x2="678" y2="186.5" gradientUnits="userSpaceOnUse">
<stop stop-color="#723590"/>
<stop offset="1" stop-color="#D12D87"/>
</linearGradient>
<linearGradient id="paint11_linear_1354_989" x1="842" y1="240" x2="842" y2="306" gradientUnits="userSpaceOnUse">
<stop stop-color="#F55C79"/>
<stop offset="1" stop-color="#ED9519"/>
</linearGradient>
</defs>
</svg>
