<svg width="709" height="410" viewBox="0 0 709 410" fill="none" xmlns="http://www.w3.org/2000/svg">
<g clip-path="url(#clip0_1363_953)">
<path d="M448.494 142.414C416.66 141.185 416.764 97.6528 448.494 96.4641H501.557C534.422 95.3254 535.016 51.034 502.141 49.5156H188.709C182.031 49.5156 175.627 52.0593 170.906 56.5871C166.184 61.1149 163.531 67.2559 163.531 73.6591C163.531 80.0624 166.184 86.2034 170.906 90.7312C175.627 95.259 182.031 97.8026 188.709 97.8026H234.678C247.689 97.8026 258.762 107.502 259.22 119.968C259.341 123.057 258.81 126.137 257.66 129.024C256.51 131.912 254.765 134.547 252.528 136.772C250.291 138.997 247.609 140.767 244.642 141.975C241.675 143.183 238.485 143.804 235.262 143.802H53.3423C48.1471 143.721 42.987 144.632 38.1627 146.482C33.3383 148.332 28.9463 151.085 25.2424 154.579C21.5385 158.074 18.5968 162.24 16.5889 166.835C14.581 171.431 13.5469 176.363 13.5469 181.346C13.5469 186.328 14.581 191.261 16.5889 195.857C18.5968 200.452 21.5385 204.618 25.2424 208.113C28.9463 211.607 33.3383 214.359 38.1627 216.21C42.987 218.06 48.1471 218.971 53.3423 218.89C212.313 218.95 467.265 218.63 624.184 218.47C634.702 218.47 644.789 214.464 652.226 207.332C659.663 200.2 663.841 190.528 663.841 180.442C663.841 170.356 659.663 160.684 652.226 153.552C644.789 146.42 634.702 142.414 624.184 142.414H448.494Z" stroke="#B6C8EF" stroke-linecap="round" stroke-linejoin="round" stroke-dasharray="3 3"/>
<path d="M400.141 0.998047V13.1647" stroke="#B6C8EF" stroke-linecap="round" stroke-linejoin="round"/>
<path d="M458.348 56.8164H445.66" stroke="#B6C8EF" stroke-linecap="round" stroke-linejoin="round"/>
<path d="M354.617 56.8164H341.93" stroke="#B6C8EF" stroke-linecap="round" stroke-linejoin="round"/>
<path d="M432.328 25.9502L441.307 17.3496" stroke="#B6C8EF" stroke-linecap="round" stroke-linejoin="round"/>
<path d="M367.953 25.9502L358.984 17.3496" stroke="#B6C8EF" stroke-linecap="round" stroke-linejoin="round"/>
<path d="M538.33 119.419C538.33 120.067 538.129 120.701 537.753 121.24C537.377 121.779 536.843 122.199 536.218 122.447C535.593 122.695 534.905 122.759 534.242 122.632C533.579 122.504 532.971 122.191 532.493 121.732C532.016 121.273 531.691 120.688 531.56 120.052C531.43 119.416 531.499 118.757 531.759 118.158C532.019 117.56 532.459 117.049 533.022 116.69C533.585 116.331 534.247 116.141 534.923 116.143C535.371 116.143 535.815 116.227 536.229 116.392C536.643 116.557 537.019 116.798 537.336 117.103C537.652 117.407 537.903 117.768 538.073 118.166C538.244 118.563 538.331 118.989 538.33 119.419Z" stroke="#B6C8EF" stroke-linecap="round" stroke-linejoin="round"/>
<path d="M304.783 12.9949C304.785 13.6434 304.586 14.2778 304.212 14.8179C303.838 15.358 303.305 15.7795 302.681 16.029C302.057 16.2786 301.369 16.3449 300.706 16.2196C300.042 16.0943 299.433 15.783 298.954 15.3252C298.475 14.8674 298.148 14.2836 298.016 13.6478C297.883 13.012 297.95 12.3527 298.208 11.7534C298.467 11.1541 298.905 10.6419 299.467 10.2814C300.029 9.92093 300.69 9.72852 301.366 9.72852C302.27 9.72851 303.138 10.0723 303.778 10.6846C304.419 11.2969 304.78 12.1277 304.783 12.9949Z" stroke="#B6C8EF" stroke-linecap="round" stroke-linejoin="round"/>
<path d="M342.412 86.3545C342.412 87.0025 342.211 87.636 341.836 88.1748C341.46 88.7136 340.927 89.1336 340.302 89.3815C339.678 89.6295 338.991 89.6944 338.328 89.568C337.665 89.4416 337.057 89.1295 336.579 88.6713C336.101 88.2131 335.776 87.6293 335.644 86.9937C335.512 86.3582 335.58 85.6994 335.838 85.1007C336.097 84.502 336.535 83.9903 337.097 83.6303C337.658 83.2703 338.319 83.0781 338.995 83.0781C339.901 83.0781 340.77 83.4233 341.411 84.0378C342.052 84.6522 342.412 85.4856 342.412 86.3545Z" stroke="#B6C8EF" stroke-linecap="round" stroke-linejoin="round"/>
<path d="M639.435 64.6688C639.437 65.3172 639.238 65.9516 638.864 66.4917C638.49 67.0319 637.957 67.4534 637.333 67.7029C636.709 67.9524 636.022 68.0187 635.358 67.8934C634.695 67.7681 634.085 67.4569 633.606 66.9991C633.127 66.5412 632.801 65.9575 632.668 65.3216C632.535 64.6858 632.602 64.0265 632.861 63.4272C633.119 62.828 633.557 62.3157 634.119 61.9552C634.681 61.5948 635.342 61.4023 636.018 61.4023C636.923 61.4023 637.79 61.7462 638.431 62.3584C639.071 62.9707 639.432 63.8015 639.435 64.6688Z" stroke="#B6C8EF" stroke-linecap="round" stroke-linejoin="round"/>
<path d="M65.0014 120.767C65.0014 121.415 64.8008 122.049 64.4249 122.588C64.049 123.127 63.5147 123.547 62.8898 123.795C62.2649 124.042 61.5773 124.107 60.9143 123.979C60.2512 123.852 59.6424 123.539 59.165 123.08C58.6876 122.621 58.363 122.036 58.2324 121.4C58.1017 120.763 58.1708 120.104 58.4311 119.506C58.6913 118.907 59.1308 118.396 59.694 118.038C60.2573 117.679 60.9189 117.488 61.5951 117.49C62.0433 117.49 62.4871 117.575 62.9011 117.74C63.315 117.905 63.691 118.146 64.0074 118.45C64.3238 118.755 64.5745 119.116 64.7451 119.514C64.9157 119.911 65.0028 120.337 65.0014 120.767Z" stroke="#B6C8EF" stroke-linecap="round" stroke-linejoin="round"/>
<path d="M9.21616 135.79L0.72645 137.968C0.0181064 138.148 -0.138144 139.206 0.476449 139.766L6.59112 145.42C6.69306 145.528 6.82428 145.607 6.97022 145.648C7.11616 145.689 7.27111 145.69 7.41786 145.652C7.56461 145.614 7.69744 145.537 7.80158 145.431C7.90572 145.325 7.9771 145.193 8.00781 145.05L10.3724 137.229C10.6537 136.449 9.97659 135.61 9.21616 135.79Z" stroke="#B6C8EF" stroke-linecap="round" stroke-linejoin="round"/>
<path d="M645.457 169.882L638.332 164.948C637.739 164.528 636.791 165.088 636.718 165.897L636.03 174.008C636.006 174.152 636.023 174.3 636.081 174.435C636.139 174.57 636.235 174.687 636.358 174.773C636.481 174.858 636.627 174.91 636.778 174.921C636.93 174.933 637.082 174.903 637.218 174.837L645.03 171.64C645.812 171.331 646.062 170.292 645.457 169.882Z" stroke="#B6C8EF" stroke-linecap="round" stroke-linejoin="round"/>
<path d="M34.3945 187.992H64.5825" stroke="#B6C8EF" stroke-linecap="round" stroke-linejoin="round"/>
<path d="M378.141 115.373H404.662" stroke="#B6C8EF" stroke-linecap="round" stroke-linejoin="round"/>
<path d="M569.746 155.469H588.455" stroke="#B6C8EF" stroke-linecap="round" stroke-linejoin="round"/>
<path d="M592.945 155.469H602.31" stroke="#B6C8EF" stroke-linecap="round" stroke-linejoin="round"/>
<path d="M254.699 86.3438H272.71" stroke="#B6C8EF" stroke-linecap="round" stroke-linejoin="round"/>
<path d="M269.086 94.3848H283.211" stroke="#B6C8EF" stroke-linecap="round" stroke-linejoin="round"/>
<path d="M118.355 61.4512H132.939" stroke="#B6C8EF" stroke-linecap="round" stroke-linejoin="round"/>
<path d="M129.898 56.418H139.221" stroke="#B6C8EF" stroke-linecap="round" stroke-linejoin="round"/>
<path d="M54.3008 194.814H68.8843" stroke="#B6C8EF" stroke-linecap="round" stroke-linejoin="round"/>
<path d="M94.1445 72.0703V77.794" stroke="#B6C8EF" stroke-linecap="round" stroke-linejoin="round"/>
<path d="M97.1368 74.9277H91.168" stroke="#B6C8EF" stroke-linecap="round" stroke-linejoin="round"/>
<path d="M97.1368 74.9277H91.168" stroke="#B6C8EF" stroke-linecap="round" stroke-linejoin="round"/>
<path d="M365.492 137.857V143.581" stroke="#B6C8EF" stroke-linecap="round" stroke-linejoin="round"/>
<path d="M368.484 140.715H362.516" stroke="#B6C8EF" stroke-linecap="round" stroke-linejoin="round"/>
<path d="M368.484 140.715H362.516" stroke="#B6C8EF" stroke-linecap="round" stroke-linejoin="round"/>
<path d="M501.871 10.748V16.4718" stroke="#B6C8EF" stroke-linecap="round" stroke-linejoin="round"/>
<path d="M504.849 13.6133H498.891" stroke="#B6C8EF" stroke-linecap="round" stroke-linejoin="round"/>
<path d="M504.849 13.6133H498.891" stroke="#B6C8EF" stroke-linecap="round" stroke-linejoin="round"/>
<path d="M616.32 127.979V133.702" stroke="#B6C8EF" stroke-linecap="round" stroke-linejoin="round"/>
<path d="M619.298 130.836H613.34" stroke="#B6C8EF" stroke-linecap="round" stroke-linejoin="round"/>
<path d="M619.298 130.836H613.34" stroke="#B6C8EF" stroke-linecap="round" stroke-linejoin="round"/>
<path d="M682.039 231.186V236.909" stroke="#B6C8EF" stroke-linecap="round" stroke-linejoin="round"/>
<path d="M685.021 234.043H679.062" stroke="#B6C8EF" stroke-linecap="round" stroke-linejoin="round"/>
<path d="M685.021 234.043H679.062" stroke="#B6C8EF" stroke-linecap="round" stroke-linejoin="round"/>
<path d="M160.458 34.1825C160.458 34.1825 160.344 34.1825 160.323 34.1825H95.4054C85.1969 34.1825 82.0406 33.8628 71.853 34.1825C71.7384 28.1891 73.4884 22.4653 76.4989 19.4187C77.7943 18.134 79.4082 17.1852 81.1899 16.6611C82.9715 16.137 84.8627 16.0548 86.6865 16.422C91.0824 17.5407 94.072 20.3576 96.9158 22.4154C97.9575 14.1045 101.51 6.54281 105.353 4.88463C111.979 2.03776 118.895 6.5528 122.02 10.8781C124.521 14.5516 126.061 18.749 126.51 23.1146C130.677 18.7095 139.958 15.3432 143.312 22.3355C144.625 25.0825 144.521 28.229 144.354 31.2457C147.098 30.5705 149.964 30.4836 152.748 30.9912C155.531 31.4988 158.164 32.5884 160.458 34.1825Z" fill="#E3F1FC"/>
<path d="M528.703 105.293C530.161 99.6096 543.943 91.3087 551.308 96.3032C551.408 92.5287 552.549 88.847 554.615 85.6326C556.68 82.4182 559.597 79.7858 563.068 78.0033C573.037 72.819 582.621 83.1277 584.746 89.6305C586.725 83.6371 596.787 75.546 604.881 82.3685C612.361 88.6816 613.111 99.26 612.329 105.283L528.703 105.293Z" fill="#E3F1FC"/>
<path d="M494.213 297.402L512.838 180.25C513.051 178.864 513.776 177.597 514.881 176.68C515.986 175.763 517.398 175.258 518.859 175.256H601.069L580.11 304.684C579.451 308.899 577.213 312.739 573.816 315.487C570.419 318.235 566.095 319.703 561.652 319.617H438.129C437.317 319.619 436.513 319.466 435.762 319.169C435.011 318.872 434.329 318.436 433.754 317.886C433.18 317.336 432.724 316.682 432.413 315.963C432.102 315.244 431.941 314.473 431.941 313.694C431.941 312.12 432.593 310.611 433.754 309.498C434.914 308.386 436.488 307.76 438.129 307.76H481.453C484.53 307.819 487.524 306.799 489.873 304.892C492.222 302.985 493.765 300.322 494.213 297.402Z" fill="#C7D2EF"/>
<path d="M576.933 297.402L595.683 179.811C595.876 178.536 596.547 177.373 597.572 176.54C598.596 175.706 599.902 175.261 601.245 175.286H601.412C602.364 175.299 603.303 175.504 604.167 175.888C605.032 176.271 605.802 176.825 606.429 177.512C607.056 178.2 607.525 179.007 607.805 179.879C608.086 180.752 608.172 181.671 608.058 182.578L588.266 304.684C587.606 308.899 585.369 312.739 581.972 315.487C578.575 318.236 574.251 319.704 569.807 319.618H480.223C479.411 319.619 478.606 319.467 477.856 319.17C477.105 318.873 476.423 318.437 475.848 317.886C475.273 317.336 474.817 316.683 474.506 315.963C474.195 315.244 474.035 314.473 474.035 313.694C474.035 312.915 474.195 312.144 474.506 311.424C474.817 310.704 475.273 310.05 475.847 309.499C476.422 308.948 477.104 308.511 477.855 308.212C478.606 307.914 479.41 307.761 480.223 307.761H564.214C567.283 307.807 570.266 306.782 572.605 304.876C574.945 302.971 576.483 300.314 576.933 297.402Z" fill="#E3EDFF"/>
<path d="M517.789 319.619V391.261" stroke="#114093" stroke-miterlimit="10"/>
<path d="M556.747 397.153C556.744 395.592 556.096 394.095 554.943 392.992C553.791 391.889 552.229 391.27 550.601 391.27H484.975C483.348 391.27 481.787 391.889 480.637 392.993C479.486 394.096 478.84 395.593 478.84 397.153" stroke="#114093" stroke-miterlimit="10"/>
<path d="M524.495 397.153C524.495 395.593 523.848 394.096 522.698 392.993C521.547 391.889 519.987 391.27 518.359 391.27" stroke="#114093" stroke-miterlimit="10"/>
<path d="M550.547 403.096C550.537 404.283 550.895 405.447 551.575 406.439C552.256 407.431 553.228 408.207 554.369 408.669C555.51 409.13 556.768 409.256 557.984 409.03C559.2 408.805 560.319 408.238 561.198 407.402C562.077 406.565 562.678 405.498 562.923 404.334C563.169 403.17 563.048 401.962 562.576 400.864C562.105 399.766 561.304 398.827 560.275 398.166C559.246 397.505 558.036 397.153 556.797 397.153C555.979 397.146 555.167 397.295 554.409 397.591C553.651 397.886 552.962 398.323 552.381 398.876C551.8 399.428 551.339 400.086 551.024 400.81C550.709 401.534 550.547 402.311 550.547 403.096Z" fill="#E3EDFF"/>
<g opacity="0.45">
<path d="M554.465 403.098C554.463 403.531 554.595 403.955 554.844 404.316C555.094 404.677 555.449 404.959 555.866 405.126C556.283 405.293 556.742 405.338 557.185 405.254C557.628 405.171 558.035 404.963 558.356 404.658C558.676 404.352 558.894 403.963 558.983 403.538C559.072 403.113 559.027 402.673 558.855 402.273C558.682 401.872 558.39 401.53 558.015 401.289C557.639 401.048 557.198 400.92 556.746 400.92C556.143 400.92 555.564 401.149 555.137 401.557C554.709 401.965 554.468 402.519 554.465 403.098Z" fill="#B7C2CE"/>
</g>
<path d="M518.297 403.096C518.287 404.286 518.646 405.451 519.329 406.444C520.011 407.438 520.987 408.214 522.131 408.673C523.275 409.133 524.536 409.256 525.754 409.026C526.971 408.797 528.089 408.225 528.966 407.384C529.844 406.543 530.44 405.47 530.679 404.303C530.919 403.136 530.791 401.926 530.311 400.829C529.832 399.732 529.023 398.797 527.987 398.142C526.951 397.487 525.736 397.143 524.495 397.153C522.855 397.166 521.287 397.796 520.127 398.908C518.968 400.02 518.311 401.524 518.297 403.096Z" fill="#E3EDFF"/>
<g opacity="0.45">
<path d="M522.227 403.098C522.225 403.531 522.357 403.955 522.607 404.317C522.857 404.678 523.213 404.96 523.63 405.127C524.047 405.294 524.507 405.338 524.95 405.254C525.394 405.169 525.801 404.961 526.121 404.654C526.441 404.348 526.658 403.957 526.746 403.532C526.833 403.107 526.787 402.666 526.613 402.266C526.44 401.866 526.146 401.524 525.769 401.284C525.392 401.045 524.95 400.918 524.497 400.92C523.896 400.923 523.32 401.153 522.895 401.561C522.469 401.968 522.229 402.521 522.227 403.098Z" fill="#B7C2CE"/>
</g>
<path d="M472.621 403.096C472.621 404.271 472.985 405.42 473.666 406.398C474.347 407.375 475.315 408.137 476.447 408.587C477.58 409.037 478.826 409.154 480.028 408.925C481.231 408.696 482.335 408.13 483.202 407.298C484.069 406.467 484.659 405.408 484.898 404.255C485.137 403.102 485.014 401.907 484.545 400.821C484.076 399.735 483.282 398.807 482.263 398.154C481.243 397.501 480.045 397.152 478.819 397.152C477.175 397.152 475.599 397.779 474.436 398.893C473.274 400.008 472.621 401.519 472.621 403.096Z" fill="#E3EDFF"/>
<g opacity="0.45">
<path d="M476.535 403.098C476.533 403.531 476.665 403.955 476.915 404.316C477.164 404.677 477.52 404.959 477.936 405.126C478.353 405.293 478.812 405.338 479.255 405.254C479.698 405.171 480.106 404.963 480.426 404.658C480.746 404.352 480.964 403.963 481.053 403.538C481.142 403.113 481.097 402.673 480.925 402.273C480.753 401.872 480.46 401.53 480.085 401.289C479.71 401.048 479.268 400.92 478.816 400.92C478.213 400.92 477.635 401.149 477.207 401.557C476.779 401.965 476.538 402.519 476.535 403.098Z" fill="#B7C2CE"/>
</g>
<path d="M316.41 297.402L297.764 180.25C297.552 178.864 296.827 177.597 295.722 176.68C294.617 175.763 293.205 175.258 291.743 175.256H209.555L230.513 304.654C231.173 308.869 233.41 312.709 236.807 315.457C240.204 318.205 244.528 319.674 248.972 319.587H372.495C373.307 319.589 374.111 319.437 374.862 319.139C375.612 318.842 376.295 318.406 376.869 317.856C377.444 317.306 377.9 316.652 378.211 315.933C378.522 315.214 378.682 314.443 378.682 313.664C378.682 312.09 378.03 310.581 376.87 309.468C375.709 308.356 374.136 307.73 372.495 307.73H329.171C326.098 307.79 323.109 306.774 320.76 304.873C318.412 302.972 316.865 300.316 316.41 297.402Z" fill="#C7D2EF"/>
<path d="M233.65 297.402L214.951 179.811C214.759 178.536 214.087 177.373 213.063 176.54C212.038 175.706 210.732 175.261 209.389 175.286H209.222C208.27 175.299 207.331 175.504 206.467 175.888C205.602 176.271 204.832 176.825 204.205 177.512C203.578 178.2 203.11 179.007 202.829 179.879C202.548 180.752 202.462 181.671 202.576 182.578L222.368 304.684C223.028 308.899 225.265 312.739 228.662 315.487C232.059 318.236 236.383 319.704 240.827 319.618H330.411C331.223 319.619 332.028 319.467 332.779 319.17C333.529 318.873 334.211 318.437 334.786 317.886C335.361 317.336 335.817 316.683 336.128 315.963C336.439 315.244 336.599 314.473 336.599 313.694C336.599 312.121 335.947 310.611 334.787 309.499C333.626 308.386 332.052 307.761 330.411 307.761H246.421C243.342 307.819 240.347 306.8 237.996 304.893C235.645 302.986 234.1 300.323 233.65 297.402Z" fill="#E3EDFF"/>
<path d="M292.848 319.619V391.261" stroke="#114093" stroke-miterlimit="10"/>
<path d="M253.879 397.153C253.882 395.592 254.53 394.095 255.683 392.992C256.835 391.889 258.397 391.27 260.025 391.27H325.651C327.278 391.27 328.839 391.889 329.989 392.993C331.14 394.096 331.786 395.593 331.786 397.153" stroke="#114093" stroke-miterlimit="10"/>
<path d="M286.129 397.153C286.129 395.593 286.775 394.096 287.926 392.993C289.077 391.889 290.637 391.27 292.264 391.27" stroke="#114093" stroke-miterlimit="10"/>
<path d="M260.076 403.096C260.076 404.271 259.712 405.42 259.031 406.398C258.35 407.375 257.382 408.137 256.25 408.587C255.117 409.037 253.871 409.154 252.669 408.925C251.466 408.696 250.362 408.13 249.495 407.298C248.628 406.467 248.038 405.408 247.799 404.255C247.56 403.102 247.682 401.907 248.151 400.821C248.621 399.735 249.415 398.807 250.434 398.154C251.454 397.501 252.652 397.152 253.878 397.152C255.522 397.152 257.098 397.779 258.26 398.893C259.423 400.008 260.076 401.519 260.076 403.096Z" fill="#E3EDFF"/>
<g opacity="0.45">
<path d="M256.16 403.098C256.162 403.531 256.03 403.955 255.781 404.316C255.531 404.677 255.176 404.959 254.759 405.126C254.343 405.293 253.883 405.338 253.44 405.254C252.997 405.171 252.59 404.963 252.27 404.658C251.949 404.352 251.731 403.963 251.642 403.538C251.553 403.113 251.598 402.673 251.77 402.273C251.943 401.872 252.235 401.53 252.61 401.289C252.986 401.048 253.427 400.92 253.879 400.92C254.482 400.92 255.061 401.149 255.488 401.557C255.916 401.965 256.157 402.519 256.16 403.098Z" fill="#B7C2CE"/>
</g>
<path d="M292.326 403.096C292.326 404.271 291.962 405.42 291.281 406.398C290.6 407.375 289.632 408.137 288.5 408.587C287.367 409.037 286.121 409.154 284.919 408.925C283.716 408.696 282.612 408.13 281.745 407.298C280.878 406.467 280.288 405.408 280.049 404.255C279.81 403.102 279.932 401.907 280.401 400.821C280.871 399.735 281.665 398.807 282.684 398.154C283.704 397.501 284.902 397.152 286.128 397.152C287.767 397.165 289.336 397.796 290.495 398.908C291.655 400.019 292.312 401.524 292.326 403.096Z" fill="#E3EDFF"/>
<g opacity="0.45">
<path d="M288.387 403.098C288.389 403.531 288.257 403.955 288.007 404.317C287.757 404.678 287.401 404.96 286.983 405.127C286.566 405.294 286.106 405.338 285.663 405.254C285.22 405.169 284.812 404.961 284.492 404.654C284.173 404.348 283.955 403.957 283.868 403.532C283.78 403.107 283.826 402.666 284 402.266C284.174 401.866 284.468 401.524 284.845 401.284C285.221 401.045 285.664 400.918 286.116 400.92C286.717 400.923 287.293 401.153 287.719 401.561C288.144 401.968 288.384 402.521 288.387 403.098Z" fill="#B7C2CE"/>
</g>
<path d="M338.005 403.096C338.005 404.271 337.642 405.42 336.961 406.398C336.28 407.375 335.312 408.137 334.179 408.587C333.047 409.037 331.801 409.154 330.598 408.925C329.396 408.696 328.292 408.13 327.425 407.298C326.558 406.467 325.968 405.408 325.728 404.255C325.489 403.102 325.612 401.907 326.081 400.821C326.55 399.735 327.345 398.807 328.364 398.154C329.383 397.501 330.582 397.152 331.807 397.152C333.451 397.152 335.028 397.779 336.19 398.893C337.352 400.008 338.005 401.519 338.005 403.096Z" fill="#E3EDFF"/>
<g opacity="0.45">
<path d="M334.086 403.098C334.088 403.531 333.956 403.955 333.707 404.316C333.457 404.677 333.102 404.959 332.685 405.126C332.268 405.293 331.809 405.338 331.366 405.254C330.923 405.171 330.515 404.963 330.195 404.658C329.875 404.352 329.657 403.963 329.568 403.538C329.479 403.113 329.524 402.673 329.696 402.273C329.868 401.872 330.161 401.53 330.536 401.289C330.912 401.048 331.353 400.92 331.805 400.92C332.408 400.92 332.987 401.149 333.414 401.557C333.842 401.965 334.083 402.519 334.086 403.098Z" fill="#B7C2CE"/>
</g>
<path d="M280.232 245.6H325.274V248.027H277.711C277.71 247.709 277.774 247.393 277.9 247.099C278.026 246.804 278.211 246.537 278.446 246.311C278.68 246.086 278.958 245.907 279.265 245.785C279.571 245.662 279.9 245.6 280.232 245.6Z" fill="#91A9D8"/>
<path d="M380.161 248.027H316.879L329.014 210.728C329.315 209.796 329.919 208.981 330.739 208.402C331.558 207.823 332.549 207.511 333.567 207.512H390.786C391.081 207.513 391.372 207.58 391.635 207.709C391.898 207.838 392.126 208.024 392.3 208.252C392.474 208.48 392.59 208.745 392.638 209.024C392.687 209.303 392.666 209.589 392.578 209.859L380.161 248.027Z" fill="#91A9D8"/>
<path d="M383.005 248.027H319.723L331.827 210.738C332.128 209.806 332.732 208.99 333.551 208.411C334.37 207.833 335.362 207.521 336.379 207.521H393.599C393.895 207.521 394.187 207.588 394.451 207.715C394.715 207.843 394.944 208.029 395.12 208.258C395.295 208.486 395.412 208.751 395.461 209.031C395.51 209.311 395.489 209.598 395.401 209.869L383.005 248.027Z" fill="#C7D2EF"/>
<path d="M360.936 231.308C363.264 230.709 364.78 228.897 364.322 227.261C363.865 225.625 361.606 224.785 359.278 225.384C356.95 225.983 355.434 227.795 355.891 229.431C356.349 231.066 358.607 231.907 360.936 231.308Z" fill="#91A9D8"/>
<path d="M462.203 255.369V409.999" stroke="#114093" stroke-miterlimit="10"/>
<path d="M202.512 255.369V409.999" stroke="#114093" stroke-miterlimit="10"/>
<g opacity="0.55">
<path d="M398.242 232.215C398.579 232.158 398.889 232 399.128 231.765C399.649 231.066 398.784 230.327 398.222 229.977C397.492 229.538 396.492 229.388 396.138 228.529C396.008 228.043 396.047 227.53 396.25 227.068C396.453 226.606 396.809 226.221 397.263 225.972C397.991 225.573 398.763 225.254 399.565 225.023C400.478 224.737 401.271 224.176 401.826 223.425C402.472 222.426 402.336 221.177 402.42 220.078C402.753 215.753 407.357 213.605 411.243 213.525C413.18 213.525 416.149 214.145 417.441 215.593C417.883 216.073 418.188 216.655 418.326 217.281C418.399 217.75 418.359 218.229 418.209 218.681C418.059 219.133 417.804 219.546 417.461 219.888C416.724 220.529 415.952 221.133 415.149 221.696C414.399 222.386 414.93 223.095 414.763 223.904C414.597 224.713 413.941 225.193 413.128 225.632C411.399 226.551 409.378 226.781 407.503 227.28C406.911 227.411 406.352 227.652 405.857 227.99C405.302 228.523 404.823 229.125 404.43 229.778C403.571 230.897 402.309 231.67 400.888 231.945" fill="url(#paint0_linear_1363_953)"/>
</g>
<path d="M409.048 243.092H405.371V241.414H409.048C409.62 241.414 410.169 241.196 410.573 240.808C410.977 240.42 411.205 239.894 411.205 239.346V236.449C411.205 235.901 410.977 235.375 410.573 234.987C410.169 234.599 409.62 234.381 409.048 234.381H405.371V232.703H409.048C410.084 232.703 411.078 233.098 411.81 233.8C412.543 234.503 412.955 235.456 412.955 236.449V239.346C412.955 240.339 412.543 241.292 411.81 241.995C411.078 242.697 410.084 243.092 409.048 243.092Z" fill="#E8EAEF"/>
<path d="M393.277 230.307H408.132V241.404C408.132 243.026 407.46 244.581 406.265 245.727C405.069 246.874 403.447 247.518 401.757 247.518H399.673C397.983 247.518 396.361 246.874 395.165 245.727C393.97 244.581 393.298 243.026 393.298 241.404V230.307H393.277Z" fill="#E8EAEF"/>
<path d="M390.867 245.119C390.867 245.119 391.003 248.475 396.44 248.475H404.951C410.388 248.475 410.524 245.119 410.524 245.119H390.867Z" fill="#CFDAE5"/>
<path d="M471.005 248.018H190.98V256.938H471.005V248.018Z" fill="#F0F6FF"/>
<path d="M419.745 248.026H416.682L403.14 209.189C403.068 209.022 403.039 208.84 403.055 208.659C403.072 208.479 403.135 208.305 403.237 208.152C403.34 208 403.479 207.874 403.644 207.785C403.808 207.696 403.993 207.646 404.182 207.641C404.574 207.639 404.957 207.75 405.284 207.958C405.61 208.166 405.865 208.462 406.015 208.809L419.745 248.026Z" fill="#7D97D3"/>
<path d="M468.484 245.6H418.191V248.027H471.015C471.015 247.383 470.748 246.766 470.274 246.311C469.799 245.855 469.155 245.6 468.484 245.6Z" fill="#7D97D3"/>
</g>
<defs>
<linearGradient id="paint0_linear_1363_953" x1="407.201" y1="232.215" x2="407.201" y2="213.515" gradientUnits="userSpaceOnUse">
<stop stop-color="white" stop-opacity="0.1"/>
<stop offset="1" stop-color="white" stop-opacity="0.4"/>
</linearGradient>
<clipPath id="clip0_1363_953">
<rect width="709" height="410" fill="white"/>
</clipPath>
</defs>
</svg>
