<svg width="563" height="353" viewBox="0 0 563 353" fill="none" xmlns="http://www.w3.org/2000/svg">
<path d="M220.266 -6.91414e-06V245C220.266 279 210.432 305.5 190.766 324.5C171.099 343.167 144.766 352.5 111.766 352.5C78.4323 352.5 51.4323 342.833 30.7656 323.5C10.4323 304.167 0.265626 277.167 0.265626 242.5H70.2656C70.599 257.5 74.099 269.167 80.7656 277.5C87.7656 285.833 97.7656 290 110.766 290C123.432 290 133.099 286 139.766 278C146.432 270 149.766 259 149.766 245V-6.91414e-06H220.266Z" fill="#5BA4FC"/>
<path d="M481.922 349L404.922 213H371.922V349H301.922V-6.91414e-06H432.922C459.922 -6.91414e-06 482.922 4.83332 501.922 14.5C520.922 23.8333 535.089 36.6667 544.422 53C554.089 69 558.922 87 558.922 107C558.922 130 552.255 150.833 538.922 169.5C525.589 187.833 505.755 200.5 479.422 207.5L562.922 349H481.922ZM371.922 160.5H430.422C449.422 160.5 463.589 156 472.922 147C482.255 137.667 486.922 124.833 486.922 108.5C486.922 92.5 482.255 80.1667 472.922 71.5C463.589 62.5 449.422 58 430.422 58H371.922V160.5Z" fill="black"/>
</svg>
