<svg width="2030" height="358" viewBox="0 0 2030 358" fill="none" xmlns="http://www.w3.org/2000/svg">
<path d="M220.484 4.99999V250C220.484 284 210.651 310.5 190.984 329.5C171.318 348.167 144.984 357.5 111.984 357.5C78.651 357.5 51.651 347.833 30.9844 328.5C10.651 309.167 0.484376 282.167 0.484376 247.5H70.4844C70.8177 262.5 74.3177 274.167 80.9844 282.5C87.9844 290.833 97.9844 295 110.984 295C123.651 295 133.318 291 139.984 283C146.651 275 149.984 264 149.984 250V4.99999H220.484ZM464.141 357.5C431.474 357.5 401.474 349.833 374.141 334.5C346.807 319.167 325.141 298 309.141 271C293.141 243.667 285.141 212.833 285.141 178.5C285.141 144.5 293.141 114 309.141 87C325.141 59.6666 346.807 38.3333 374.141 23C401.474 7.66666 431.474 -2.14577e-06 464.141 -2.14577e-06C497.141 -2.14577e-06 527.141 7.66666 554.141 23C581.474 38.3333 602.974 59.6666 618.641 87C634.641 114 642.641 144.5 642.641 178.5C642.641 212.833 634.641 243.667 618.641 271C602.974 298 581.474 319.167 554.141 334.5C526.807 349.833 496.807 357.5 464.141 357.5ZM464.141 295C485.141 295 503.641 290.333 519.641 281C535.641 271.333 548.141 257.667 557.141 240C566.141 222.333 570.641 201.833 570.641 178.5C570.641 155.167 566.141 134.833 557.141 117.5C548.141 99.8333 535.641 86.3333 519.641 77C503.641 67.6667 485.141 63 464.141 63C443.141 63 424.474 67.6667 408.141 77C392.141 86.3333 379.641 99.8333 370.641 117.5C361.641 134.833 357.141 155.167 357.141 178.5C357.141 201.833 361.641 222.333 370.641 240C379.641 257.667 392.141 271.333 408.141 281C424.474 290.333 443.141 295 464.141 295ZM874.719 354L797.719 218H764.719V354H694.719V4.99999H825.719C852.719 4.99999 875.719 9.83332 894.719 19.5C913.719 28.8333 927.885 41.6667 937.219 58C946.885 74 951.719 92 951.719 112C951.719 135 945.052 155.833 931.719 174.5C918.385 192.833 898.552 205.5 872.219 212.5L955.719 354H874.719ZM764.719 165.5H823.219C842.219 165.5 856.385 161 865.719 152C875.052 142.667 879.719 129.833 879.719 113.5C879.719 97.5 875.052 85.1667 865.719 76.5C856.385 67.5 842.219 63 823.219 63H764.719V165.5ZM1137.03 4.99999C1173.7 4.99999 1205.86 12.1667 1233.53 26.5C1261.53 40.8333 1283.03 61.3333 1298.03 88C1313.36 114.333 1321.03 145 1321.03 180C1321.03 215 1313.36 245.667 1298.03 272C1283.03 298 1261.53 318.167 1233.53 332.5C1205.86 346.833 1173.7 354 1137.03 354H1015.03V4.99999H1137.03ZM1134.53 294.5C1171.2 294.5 1199.53 284.5 1219.53 264.5C1239.53 244.5 1249.53 216.333 1249.53 180C1249.53 143.667 1239.53 115.333 1219.53 95C1199.53 74.3333 1171.2 64 1134.53 64H1085.03V294.5H1134.53ZM1587.43 287.5H1448.43L1425.43 354H1351.93L1477.43 4.49997H1558.93L1684.43 354H1610.43L1587.43 287.5ZM1568.43 231.5L1517.93 85.5L1467.43 231.5H1568.43ZM2029.84 354H1959.84L1801.34 114.5V354H1731.34V4.49997H1801.34L1959.84 244.5V4.49997H2029.84V354Z" fill="white"/>
</svg>
